<svg xmlns="http://www.w3.org/2000/svg" viewBox="0 0 900 952" width="900" height="952" font-family="-apple-system,Segoe UI,Helvetica,Arial,sans-serif"><style>.grid{stroke:#343a35;stroke-width:1}.noise{stroke:#e0a800;stroke-width:1.6}.tick{fill:#a1aaa2;font-size:11px}.lbl{fill:#e8ece6;font-size:12.5px}.val{fill:#e8ece6;font-size:12px}.grp{fill:#a1aaa2;font-size:10.5px}.hit{fill:transparent}.bar{fill:var(--c)}.bar.off{fill:url(#hatch);stroke:var(--c);stroke-width:1.2}.ttl{fill:#e8ece6;font-size:15px;font-weight:600}.sub{fill:#a1aaa2;font-size:11.5px}.k-caspien{--c:#5cb37f}.k-c{--c:#e16e68}.k-cpp{--c:#f3978e}.k-rust{--c:#bb5954}.k-go{--c:#f5b7b0}.k-fortran{--c:#9a504c}.k-objc{--c:#cc817a}.k-odin{--c:#ed9381}.k-zig{--c:#d5728b}.k-chapel{--c:#f7c8c0}.k-ldc{--c:#e77869}.k-gdc{--c:#f3a497}.k-nim{--c:#c85f5a}.k-crystal{--c:#e18b7e}.k-ocaml{--c:#f9d1ca}.k-swift{--c:#d66578}.k-codon{--c:#ad5e59}.k-java{--c:#9769c8}.k-csharp{--c:#826ed4}.k-kotlin{--c:#c18be1}.k-wasm{--c:#b09ae7}.k-node{--c:#5d8fdf}.k-bun{--c:#9bc1f5}.k-luajit{--c:#4f72bb}</style><defs><pattern id="hatch" width="6" height="6" patternUnits="userSpaceOnUse" patternTransform="rotate(45)"><rect width="6" height="6" fill="#28402f"/><line x1="0" y1="0" x2="0" y2="6" stroke="#5cb37f" stroke-width="2.4"/></pattern></defs><rect width="900" height="952" rx="8" fill="#1f2220" stroke="#3a413b"/><text class="ttl" x="16" y="24">Executable size: every language, relative to C -O2</text><text class="sub" x="16" y="40">Geometric mean of executable size / C -O2 on the same program, over the programs where both exist. Lower is better; 1x = C -O2.</text><g transform="translate(0,46)"><line class="grid" x1="300.0" x2="300.0" y1="6" y2="840"/><text class="tick" x="300.0" y="854" text-anchor="middle">1x</text><line class="grid" x1="390.0" x2="390.0" y1="6" y2="840"/><text class="tick" x="390.0" y="854" text-anchor="middle">10x</text><line class="grid" x1="480.0" x2="480.0" y1="6" y2="840"/><text class="tick" x="480.0" y="854" text-anchor="middle">100x</text><line class="grid" x1="570.0" x2="570.0" y1="6" y2="840"/><text class="tick" x="570.0" y="854" text-anchor="middle">1000x</text><line class="grid" x1="660.0" x2="660.0" y1="6" y2="840"/><text class="tick" x="660.0" y="854" text-anchor="middle">10000x</text><line class="grid" x1="750.0" x2="750.0" y1="6" y2="840"/><text class="tick" x="750.0" y="854" text-anchor="middle">100000x</text><text class="tick" x="892" y="854" text-anchor="end">log scale</text><g class="row"><text class="lbl" x="292" y="20.2" text-anchor="end">C -O2</text><rect class="bar k-c" x="300" y="8" width="1.5" height="17" rx="3"/><text class="val" x="307.5" y="20.2">1.00x</text></g><g class="row"><text class="lbl" x="292" y="43.2" text-anchor="end">Fortran</text><rect class="bar k-fortran" x="300" y="31" width="1.5" height="17" rx="3"/><text class="val" x="307.5" y="43.2">1.03x</text></g><g class="row"><text class="lbl" x="292" y="66.2" text-anchor="end">C++ -O2</text><rect class="bar k-cpp" x="300" y="54" width="1.5" height="17" rx="3"/><text class="val" x="307.5" y="66.2">1.03x</text></g><g class="row"><text class="lbl" x="292" y="89.2" text-anchor="end">Codon</text><rect class="bar k-codon" x="300" y="77" width="6.3" height="17" rx="3"/><text class="val" x="312.3" y="89.2">1.17x</text></g><g class="row"><text class="lbl" x="292" y="112.2" text-anchor="end">Objective-C</text><rect class="bar k-objc" x="300" y="100" width="10.9" height="17" rx="3"/><text class="val" x="316.9" y="112.2">1.32x</text></g><g class="row"><text class="lbl" x="292" y="135.2" text-anchor="end">Caspien ref unsafe [3 programs]</text><rect class="bar k-caspien" x="300" y="123" width="33.3" height="17" rx="3"/><text class="val" x="339.3" y="135.2">2.35x</text></g><g class="row"><text class="lbl" x="292" y="158.2" text-anchor="end">Caspien ref safe [3 programs]</text><rect class="bar k-caspien" x="300" y="146" width="35.5" height="17" rx="3"/><text class="val" x="341.5" y="158.2">2.48x</text></g><g class="row"><text class="lbl" x="292" y="181.2" text-anchor="end">D (GDC)</text><rect class="bar k-gdc" x="300" y="169" width="35.6" height="17" rx="3"/><text class="val" x="341.6" y="181.2">2.49x</text></g><g class="row"><text class="lbl" x="292" y="204.2" text-anchor="end">Caspien optimized (unsafe), everything on</text><rect class="bar k-caspien" x="300" y="192" width="36.0" height="17" rx="3"/><text class="val" x="342.0" y="204.2">2.51x</text></g><g class="row"><text class="lbl" x="292" y="227.2" text-anchor="end">Caspien optimized (unsafe), tuned per program</text><rect class="bar k-caspien" x="300" y="215" width="36.0" height="17" rx="3"/><text class="val" x="342.0" y="227.2">2.51x</text></g><g class="row"><text class="lbl" x="292" y="250.2" text-anchor="end">Caspien optimized (unsafe), optimisations off</text><rect class="bar k-caspien off" x="300" y="238" width="37.4" height="17" rx="3"/><text class="val" x="343.4" y="250.2">2.60x</text></g><g class="row"><text class="lbl" x="292" y="273.2" text-anchor="end">D (LDC)</text><rect class="bar k-ldc" x="300" y="261" width="37.8" height="17" rx="3"/><text class="val" x="343.8" y="273.2">2.63x</text></g><g class="row"><text class="lbl" x="292" y="296.2" text-anchor="end">Caspien optimized (safe), everything on</text><rect class="bar k-caspien" x="300" y="284" width="41.0" height="17" rx="3"/><text class="val" x="347.0" y="296.2">2.85x</text></g><g class="row"><text class="lbl" x="292" y="319.2" text-anchor="end">Caspien optimized (safe), tuned per program</text><rect class="bar k-caspien" x="300" y="307" width="41.0" height="17" rx="3"/><text class="val" x="347.0" y="319.2">2.85x</text></g><g class="row"><text class="lbl" x="292" y="342.2" text-anchor="end">Caspien optimized (safe), optimisations off</text><rect class="bar k-caspien off" x="300" y="330" width="42.2" height="17" rx="3"/><text class="val" x="348.2" y="342.2">2.94x</text></g><g class="row"><text class="lbl" x="292" y="365.2" text-anchor="end">Caspien ref naive [3 programs]</text><rect class="bar k-caspien" x="300" y="353" width="43.8" height="17" rx="3"/><text class="val" x="349.8" y="365.2">3.07x</text></g><g class="row"><text class="lbl" x="292" y="388.2" text-anchor="end">Caspien naive, everything on</text><rect class="bar k-caspien" x="300" y="376" width="50.9" height="17" rx="3"/><text class="val" x="356.9" y="388.2">3.68x</text></g><g class="row"><text class="lbl" x="292" y="411.2" text-anchor="end">Caspien naive, tuned per program</text><rect class="bar k-caspien" x="300" y="399" width="50.9" height="17" rx="3"/><text class="val" x="356.9" y="411.2">3.68x</text></g><g class="row"><text class="lbl" x="292" y="434.2" text-anchor="end">Caspien naive, optimisations off</text><rect class="bar k-caspien off" x="300" y="422" width="58.4" height="17" rx="3"/><text class="val" x="364.4" y="434.2">4.45x</text></g><g class="row"><text class="lbl" x="292" y="457.2" text-anchor="end">Caspien naive, ref HashMap [2 programs]</text><rect class="bar k-caspien" x="300" y="445" width="70.6" height="17" rx="3"/><text class="val" x="376.6" y="457.2">6.09x</text></g><g class="row"><text class="lbl" x="292" y="480.2" text-anchor="end">Nim</text><rect class="bar k-nim" x="300" y="468" width="72.6" height="17" rx="3"/><text class="val" x="378.6" y="480.2">6.41x</text></g><g class="row"><text class="lbl" x="292" y="503.2" text-anchor="end">Odin</text><rect class="bar k-odin" x="300" y="491" width="90.2" height="17" rx="3"/><text class="val" x="396.2" y="503.2">10.06x</text></g><g class="row"><text class="lbl" x="292" y="526.2" text-anchor="end">LuaJIT</text><rect class="bar k-luajit" x="300" y="514" width="140.9" height="17" rx="3"/><text class="val" x="446.9" y="526.2">36.74x</text></g><g class="row"><text class="lbl" x="292" y="549.2" text-anchor="end">Crystal</text><rect class="bar k-crystal" x="300" y="537" width="151.5" height="17" rx="3"/><text class="val" x="457.5" y="549.2">48.22x</text></g><g class="row"><text class="lbl" x="292" y="572.2" text-anchor="end">OCaml</text><rect class="bar k-ocaml" x="300" y="560" width="164.2" height="17" rx="3"/><text class="val" x="470.2" y="572.2">66.68x</text></g><g class="row"><text class="lbl" x="292" y="595.2" text-anchor="end">Chapel</text><rect class="bar k-chapel" x="300" y="583" width="188.2" height="17" rx="3"/><text class="val" x="494.2" y="595.2">123.42x</text></g><g class="row"><text class="lbl" x="292" y="618.2" text-anchor="end">Go</text><rect class="bar k-go" x="300" y="606" width="191.9" height="17" rx="3"/><text class="val" x="497.9" y="618.2">135.62x</text></g><g class="row"><text class="lbl" x="292" y="641.2" text-anchor="end">Zig</text><rect class="bar k-zig" x="300" y="629" width="212.5" height="17" rx="3"/><text class="val" x="518.5" y="641.2">229.72x</text></g><g class="row"><text class="lbl" x="292" y="664.2" text-anchor="end">Rust -O</text><rect class="bar k-rust" x="300" y="652" width="218.1" height="17" rx="3"/><text class="val" x="524.1" y="664.2">264.89x</text></g><g class="row"><text class="lbl" x="292" y="687.2" text-anchor="end">Swift</text><rect class="bar k-swift" x="300" y="675" width="244.7" height="17" rx="3"/><text class="val" x="550.7" y="687.2">523.17x</text></g><g class="row"><text class="lbl" x="292" y="710.2" text-anchor="end">WebAssembly</text><rect class="bar k-wasm" x="300" y="698" width="306.4" height="17" rx="3"/><text class="val" x="612.4" y="710.2">2534.63x</text></g><g class="row"><text class="lbl" x="292" y="733.2" text-anchor="end">C#</text><rect class="bar k-csharp" x="300" y="721" width="326.2" height="17" rx="3"/><text class="val" x="632.2" y="733.2">4213.91x</text></g><g class="row"><text class="lbl" x="292" y="756.2" text-anchor="end">Bun</text><rect class="bar k-bun" x="300" y="744" width="331.4" height="17" rx="3"/><text class="val" x="637.4" y="756.2">4816.88x</text></g><g class="row"><text class="lbl" x="292" y="779.2" text-anchor="end">Node</text><rect class="bar k-node" x="300" y="767" width="348.6" height="17" rx="3"/><text class="val" x="654.6" y="779.2">7476.96x</text></g><g class="row"><text class="lbl" x="292" y="802.2" text-anchor="end">Java</text><rect class="bar k-java" x="300" y="790" width="369.9" height="17" rx="3"/><text class="val" x="675.9" y="802.2">12898.62x</text></g><g class="row"><text class="lbl" x="292" y="825.2" text-anchor="end">Kotlin</text><rect class="bar k-kotlin" x="300" y="813" width="370.8" height="17" rx="3"/><text class="val" x="676.8" y="825.2">13191.01x</text></g></g><text class="sub" x="16" y="926">Green = Caspien (hatched = optimisations off, solid = everything on), red = native, purple = JVM/.NET/Wasm, blue = interpreted.</text><text class="sub" x="16" y="940">C, C++ and Rust: free build. Caspien variants that exist only on some programs are averaged over those programs.</text></svg>
