<svg xmlns="http://www.w3.org/2000/svg" viewBox="0 0 900 814" width="900" height="814" font-family="-apple-system,Segoe UI,Helvetica,Arial,sans-serif"><style>.grid{stroke:#dfe3dc;stroke-width:1}.noise{stroke:#e0a800;stroke-width:1.6}.tick{fill:#5d665f;font-size:11px}.lbl{fill:#1d2320;font-size:12.5px}.val{fill:#1d2320;font-size:12px}.grp{fill:#5d665f;font-size:10.5px}.hit{fill:transparent}.bar{fill:var(--c)}.bar.off{fill:url(#hatch);stroke:var(--c);stroke-width:1.2}.ttl{fill:#1d2320;font-size:15px;font-weight:600}.sub{fill:#5d665f;font-size:11.5px}.k-caspien{--c:#2e9e5b}.k-c{--c:#d9453d}.k-cpp{--c:#ef7a6e}.k-rust{--c:#a82a24}.k-go{--c:#f2a39a}.k-fortran{--c:#7d1f1a}.k-objc{--c:#bd5e55}.k-odin{--c:#e8745d}.k-zig{--c:#c94a6a}.k-chapel{--c:#f5b8ae}.k-ldc{--c:#e0523f}.k-gdc{--c:#f08a7a}.k-nim{--c:#b8322c}.k-crystal{--c:#d86a5a}.k-ocaml{--c:#f7c4bb}.k-swift{--c:#ca3a52}.k-codon{--c:#96302a}.k-java{--c:#7a3fb8}.k-csharp{--c:#5f45c8}.k-kotlin{--c:#b06ad8}.k-wasm{--c:#9a7ee0}.k-node{--c:#2f6fd6}.k-bun{--c:#7fb0f2}.k-luajit{--c:#1d4aa8}</style><defs><pattern id="hatch" width="6" height="6" patternUnits="userSpaceOnUse" patternTransform="rotate(45)"><rect width="6" height="6" fill="#cfe9d9"/><line x1="0" y1="0" x2="0" y2="6" stroke="#2e9e5b" stroke-width="2.4"/></pattern></defs><rect width="900" height="814" rx="8" fill="#ffffff" stroke="#d2d8cf"/><text class="ttl" x="16" y="24">Executable size: every language, relative to C -O2</text><text class="sub" x="16" y="40">Geometric mean of executable size / C -O2 on the same program, over the programs where both exist. Lower is better; 1x = C -O2.</text><g transform="translate(0,46)"><line class="grid" x1="300.0" x2="300.0" y1="6" y2="702"/><text class="tick" x="300.0" y="716" text-anchor="middle">1x</text><line class="grid" x1="390.0" x2="390.0" y1="6" y2="702"/><text class="tick" x="390.0" y="716" text-anchor="middle">10x</text><line class="grid" x1="480.0" x2="480.0" y1="6" y2="702"/><text class="tick" x="480.0" y="716" text-anchor="middle">100x</text><line class="grid" x1="570.0" x2="570.0" y1="6" y2="702"/><text class="tick" x="570.0" y="716" text-anchor="middle">1000x</text><line class="grid" x1="660.0" x2="660.0" y1="6" y2="702"/><text class="tick" x="660.0" y="716" text-anchor="middle">10000x</text><line class="grid" x1="750.0" x2="750.0" y1="6" y2="702"/><text class="tick" x="750.0" y="716" text-anchor="middle">100000x</text><text class="tick" x="892" y="716" text-anchor="end">log scale</text><g class="row"><text class="lbl" x="292" y="20.2" text-anchor="end">C -O2</text><rect class="bar k-c" x="300" y="8" width="1.5" height="17" rx="3"/><text class="val" x="307.5" y="20.2">1.00x</text></g><g class="row"><text class="lbl" x="292" y="43.2" text-anchor="end">Fortran</text><rect class="bar k-fortran" x="300" y="31" width="1.5" height="17" rx="3"/><text class="val" x="307.5" y="43.2">1.03x</text></g><g class="row"><text class="lbl" x="292" y="66.2" text-anchor="end">C++ -O2</text><rect class="bar k-cpp" x="300" y="54" width="1.5" height="17" rx="3"/><text class="val" x="307.5" y="66.2">1.03x</text></g><g class="row"><text class="lbl" x="292" y="89.2" text-anchor="end">Codon</text><rect class="bar k-codon" x="300" y="77" width="6.3" height="17" rx="3"/><text class="val" x="312.3" y="89.2">1.17x</text></g><g class="row"><text class="lbl" x="292" y="112.2" text-anchor="end">Objective-C</text><rect class="bar k-objc" x="300" y="100" width="10.9" height="17" rx="3"/><text class="val" x="316.9" y="112.2">1.32x</text></g><g class="row"><text class="lbl" x="292" y="135.2" text-anchor="end">Caspien ref unsafe [3 programs]</text><rect class="bar k-caspien" x="300" y="123" width="32.4" height="17" rx="3"/><text class="val" x="338.4" y="135.2">2.29x</text></g><g class="row"><text class="lbl" x="292" y="158.2" text-anchor="end">Caspien ref safe [3 programs]</text><rect class="bar k-caspien" x="300" y="146" width="33.5" height="17" rx="3"/><text class="val" x="339.5" y="158.2">2.36x</text></g><g class="row"><text class="lbl" x="292" y="181.2" text-anchor="end">D (GDC)</text><rect class="bar k-gdc" x="300" y="169" width="35.6" height="17" rx="3"/><text class="val" x="341.6" y="181.2">2.49x</text></g><g class="row"><text class="lbl" x="292" y="204.2" text-anchor="end">Caspien optimized (unsafe), everything on</text><rect class="bar k-caspien" x="300" y="192" width="36.6" height="17" rx="3"/><text class="val" x="342.6" y="204.2">2.55x</text></g><g class="row"><text class="lbl" x="292" y="227.2" text-anchor="end">D (LDC)</text><rect class="bar k-ldc" x="300" y="215" width="37.8" height="17" rx="3"/><text class="val" x="343.8" y="227.2">2.63x</text></g><g class="row"><text class="lbl" x="292" y="250.2" text-anchor="end">Caspien optimized (safe), everything on</text><rect class="bar k-caspien" x="300" y="238" width="40.9" height="17" rx="3"/><text class="val" x="346.9" y="250.2">2.84x</text></g><g class="row"><text class="lbl" x="292" y="273.2" text-anchor="end">Caspien ref naive [3 programs]</text><rect class="bar k-caspien" x="300" y="261" width="42.1" height="17" rx="3"/><text class="val" x="348.1" y="273.2">2.94x</text></g><g class="row"><text class="lbl" x="292" y="296.2" text-anchor="end">Caspien naive, everything on</text><rect class="bar k-caspien" x="300" y="284" width="50.9" height="17" rx="3"/><text class="val" x="356.9" y="296.2">3.67x</text></g><g class="row"><text class="lbl" x="292" y="319.2" text-anchor="end">Caspien naive, ref HashMap [2 programs]</text><rect class="bar k-caspien" x="300" y="307" width="70.8" height="17" rx="3"/><text class="val" x="376.8" y="319.2">6.12x</text></g><g class="row"><text class="lbl" x="292" y="342.2" text-anchor="end">Nim</text><rect class="bar k-nim" x="300" y="330" width="72.6" height="17" rx="3"/><text class="val" x="378.6" y="342.2">6.41x</text></g><g class="row"><text class="lbl" x="292" y="365.2" text-anchor="end">Odin</text><rect class="bar k-odin" x="300" y="353" width="90.3" height="17" rx="3"/><text class="val" x="396.3" y="365.2">10.07x</text></g><g class="row"><text class="lbl" x="292" y="388.2" text-anchor="end">LuaJIT</text><rect class="bar k-luajit" x="300" y="376" width="140.9" height="17" rx="3"/><text class="val" x="446.9" y="388.2">36.74x</text></g><g class="row"><text class="lbl" x="292" y="411.2" text-anchor="end">Crystal</text><rect class="bar k-crystal" x="300" y="399" width="151.5" height="17" rx="3"/><text class="val" x="457.5" y="411.2">48.22x</text></g><g class="row"><text class="lbl" x="292" y="434.2" text-anchor="end">OCaml</text><rect class="bar k-ocaml" x="300" y="422" width="164.2" height="17" rx="3"/><text class="val" x="470.2" y="434.2">66.68x</text></g><g class="row"><text class="lbl" x="292" y="457.2" text-anchor="end">Chapel</text><rect class="bar k-chapel" x="300" y="445" width="188.2" height="17" rx="3"/><text class="val" x="494.2" y="457.2">123.42x</text></g><g class="row"><text class="lbl" x="292" y="480.2" text-anchor="end">Go</text><rect class="bar k-go" x="300" y="468" width="191.9" height="17" rx="3"/><text class="val" x="497.9" y="480.2">135.62x</text></g><g class="row"><text class="lbl" x="292" y="503.2" text-anchor="end">Zig</text><rect class="bar k-zig" x="300" y="491" width="212.5" height="17" rx="3"/><text class="val" x="518.5" y="503.2">229.72x</text></g><g class="row"><text class="lbl" x="292" y="526.2" text-anchor="end">Rust -O</text><rect class="bar k-rust" x="300" y="514" width="218.1" height="17" rx="3"/><text class="val" x="524.1" y="526.2">264.89x</text></g><g class="row"><text class="lbl" x="292" y="549.2" text-anchor="end">Swift</text><rect class="bar k-swift" x="300" y="537" width="244.7" height="17" rx="3"/><text class="val" x="550.7" y="549.2">523.17x</text></g><g class="row"><text class="lbl" x="292" y="572.2" text-anchor="end">WebAssembly</text><rect class="bar k-wasm" x="300" y="560" width="306.4" height="17" rx="3"/><text class="val" x="612.4" y="572.2">2534.63x</text></g><g class="row"><text class="lbl" x="292" y="595.2" text-anchor="end">C#</text><rect class="bar k-csharp" x="300" y="583" width="326.2" height="17" rx="3"/><text class="val" x="632.2" y="595.2">4213.91x</text></g><g class="row"><text class="lbl" x="292" y="618.2" text-anchor="end">Bun</text><rect class="bar k-bun" x="300" y="606" width="331.4" height="17" rx="3"/><text class="val" x="637.4" y="618.2">4816.88x</text></g><g class="row"><text class="lbl" x="292" y="641.2" text-anchor="end">Node</text><rect class="bar k-node" x="300" y="629" width="348.6" height="17" rx="3"/><text class="val" x="654.6" y="641.2">7476.96x</text></g><g class="row"><text class="lbl" x="292" y="664.2" text-anchor="end">Java</text><rect class="bar k-java" x="300" y="652" width="369.9" height="17" rx="3"/><text class="val" x="675.9" y="664.2">12898.62x</text></g><g class="row"><text class="lbl" x="292" y="687.2" text-anchor="end">Kotlin</text><rect class="bar k-kotlin" x="300" y="675" width="370.8" height="17" rx="3"/><text class="val" x="676.8" y="687.2">13191.01x</text></g></g><text class="sub" x="16" y="788">Green = Caspien (hatched = optimisations off, solid = everything on), red = native, purple = JVM/.NET/Wasm, blue = interpreted.</text><text class="sub" x="16" y="802">C, C++ and Rust: free build. Caspien variants that exist only on some programs are averaged over those programs.</text></svg>
