<svg xmlns="http://www.w3.org/2000/svg" viewBox="0 0 900 722" width="900" height="722" font-family="-apple-system,Segoe UI,Helvetica,Arial,sans-serif"><style>.grid{stroke:#dfe3dc;stroke-width:1}.noise{stroke:#e0a800;stroke-width:1.6}.tick{fill:#5d665f;font-size:11px}.lbl{fill:#1d2320;font-size:12.5px}.val{fill:#1d2320;font-size:12px}.grp{fill:#5d665f;font-size:10.5px}.hit{fill:transparent}.bar{fill:var(--c)}.bar.off{fill:url(#hatch);stroke:var(--c);stroke-width:1.2}.ttl{fill:#1d2320;font-size:15px;font-weight:600}.sub{fill:#5d665f;font-size:11.5px}.k-caspien{--c:#2e9e5b}.k-c{--c:#d9453d}.k-cpp{--c:#ef7a6e}.k-rust{--c:#a82a24}.k-go{--c:#f2a39a}.k-fortran{--c:#7d1f1a}.k-objc{--c:#bd5e55}.k-odin{--c:#e8745d}.k-zig{--c:#c94a6a}.k-chapel{--c:#f5b8ae}.k-ldc{--c:#e0523f}.k-gdc{--c:#f08a7a}.k-nim{--c:#b8322c}.k-crystal{--c:#d86a5a}.k-ocaml{--c:#f7c4bb}.k-swift{--c:#ca3a52}.k-codon{--c:#96302a}.k-java{--c:#7a3fb8}.k-csharp{--c:#5f45c8}.k-kotlin{--c:#b06ad8}.k-wasm{--c:#9a7ee0}.k-node{--c:#2f6fd6}.k-bun{--c:#7fb0f2}.k-luajit{--c:#1d4aa8}</style><defs><pattern id="hatch" width="6" height="6" patternUnits="userSpaceOnUse" patternTransform="rotate(45)"><rect width="6" height="6" fill="#cfe9d9"/><line x1="0" y1="0" x2="0" y2="6" stroke="#2e9e5b" stroke-width="2.4"/></pattern></defs><rect width="900" height="722" rx="8" fill="#ffffff" stroke="#d2d8cf"/><text class="ttl" x="16" y="24">Execution time: Spectral-norm</text><text class="sub" x="16" y="40">N = 2,000  |  fastest of 5 runs, Linux 2-core VM; every output equals the C reference</text><g transform="translate(0,46)">
<line class="grid" x1="270.0" x2="270.0" y1="6" y2="610"/>
<text class="tick" x="270.0" y="624" text-anchor="middle">0</text>
<line class="grid" x1="380.0" x2="380.0" y1="6" y2="610"/>
<text class="tick" x="380.0" y="624" text-anchor="middle">0.2</text>
<line class="grid" x1="490.0" x2="490.0" y1="6" y2="610"/>
<text class="tick" x="490.0" y="624" text-anchor="middle">0.4</text>
<line class="grid" x1="600.0" x2="600.0" y1="6" y2="610"/>
<text class="tick" x="600.0" y="624" text-anchor="middle">0.6</text>
<line class="grid" x1="710.0" x2="710.0" y1="6" y2="610"/>
<text class="tick" x="710.0" y="624" text-anchor="middle">0.8</text>
<g class="row">

<text class="lbl" x="262" y="20.2" text-anchor="end">Caspien optimized · full</text>
<rect class="bar k-caspien" x="270" y="8" width="114.0" height="17" rx="3"/>
<line class="noise" x1="378.8" x2="378.8" y1="8" y2="25"/>
<line class="noise" x1="389.2" x2="389.2" y1="8" y2="25"/>
<text class="val" x="395.2" y="20.2">0.21 s <tspan class="grp">Caspien</tspan></text>
</g>
<g class="row">

<text class="lbl" x="262" y="43.2" text-anchor="end">Zig</text>
<rect class="bar k-zig" x="270" y="31" width="125.4" height="17" rx="3"/>
<line class="noise" x1="394.8" x2="394.8" y1="31" y2="48"/>
<line class="noise" x1="396.0" x2="396.0" y1="31" y2="48"/>
<text class="val" x="402.0" y="43.2">0.23 s <tspan class="grp">Bare metal / native-compiled</tspan></text>
</g>
<g class="row">

<text class="lbl" x="262" y="66.2" text-anchor="end">C -O2</text>
<rect class="bar k-c" x="270" y="54" width="126.7" height="17" rx="3"/>
<line class="noise" x1="395.9" x2="395.9" y1="54" y2="71"/>
<line class="noise" x1="397.5" x2="397.5" y1="54" y2="71"/>
<text class="val" x="403.5" y="66.2">0.23 s <tspan class="grp">Bare metal / native-compiled</tspan></text>
</g>
<g class="row">

<text class="lbl" x="262" y="89.2" text-anchor="end">Objective-C</text>
<rect class="bar k-objc" x="270" y="77" width="126.9" height="17" rx="3"/>
<line class="noise" x1="396.9" x2="396.9" y1="77" y2="94"/>
<line class="noise" x1="397.0" x2="397.0" y1="77" y2="94"/>
<text class="val" x="403.0" y="89.2">0.23 s <tspan class="grp">Bare metal / native-compiled</tspan></text>
</g>
<g class="row">

<text class="lbl" x="262" y="112.2" text-anchor="end">Rust -O</text>
<rect class="bar k-rust" x="270" y="100" width="127.1" height="17" rx="3"/>
<line class="noise" x1="396.7" x2="396.7" y1="100" y2="117"/>
<line class="noise" x1="397.5" x2="397.5" y1="100" y2="117"/>
<text class="val" x="403.5" y="112.2">0.23 s <tspan class="grp">Bare metal / native-compiled</tspan></text>
</g>
<g class="row">

<text class="lbl" x="262" y="135.2" text-anchor="end">Fortran</text>
<rect class="bar k-fortran" x="270" y="123" width="127.3" height="17" rx="3"/>
<line class="noise" x1="394.2" x2="394.2" y1="123" y2="140"/>
<line class="noise" x1="400.4" x2="400.4" y1="123" y2="140"/>
<text class="val" x="406.4" y="135.2">0.23 s <tspan class="grp">Bare metal / native-compiled</tspan></text>
</g>
<g class="row">

<text class="lbl" x="262" y="158.2" text-anchor="end">Go</text>
<rect class="bar k-go" x="270" y="146" width="127.8" height="17" rx="3"/>
<line class="noise" x1="395.6" x2="395.6" y1="146" y2="163"/>
<line class="noise" x1="400.0" x2="400.0" y1="146" y2="163"/>
<text class="val" x="406.0" y="158.2">0.23 s <tspan class="grp">Bare metal / native-compiled</tspan></text>
</g>
<g class="row">

<text class="lbl" x="262" y="181.2" text-anchor="end">C++ -O2</text>
<rect class="bar k-cpp" x="270" y="169" width="128.2" height="17" rx="3"/>
<line class="noise" x1="397.4" x2="397.4" y1="169" y2="186"/>
<line class="noise" x1="398.9" x2="398.9" y1="169" y2="186"/>
<text class="val" x="404.9" y="181.2">0.23 s <tspan class="grp">Bare metal / native-compiled</tspan></text>
</g>
<g class="row">

<text class="lbl" x="262" y="204.2" text-anchor="end">Codon</text>
<rect class="bar k-codon" x="270" y="192" width="128.6" height="17" rx="3"/>
<line class="noise" x1="397.3" x2="397.3" y1="192" y2="209"/>
<line class="noise" x1="399.9" x2="399.9" y1="192" y2="209"/>
<text class="val" x="405.9" y="204.2">0.23 s <tspan class="grp">Bare metal / native-compiled</tspan></text>
</g>
<g class="row">

<text class="lbl" x="262" y="227.2" text-anchor="end">Odin</text>
<rect class="bar k-odin" x="270" y="215" width="129.8" height="17" rx="3"/>
<line class="noise" x1="395.5" x2="395.5" y1="215" y2="232"/>
<line class="noise" x1="404.0" x2="404.0" y1="215" y2="232"/>
<text class="val" x="410.0" y="227.2">0.24 s <tspan class="grp">Bare metal / native-compiled</tspan></text>
</g>
<g class="row">

<text class="lbl" x="262" y="250.2" text-anchor="end">D (LDC)</text>
<rect class="bar k-ldc" x="270" y="238" width="130.3" height="17" rx="3"/>
<line class="noise" x1="399.4" x2="399.4" y1="238" y2="255"/>
<line class="noise" x1="401.2" x2="401.2" y1="238" y2="255"/>
<text class="val" x="407.2" y="250.2">0.24 s <tspan class="grp">Bare metal / native-compiled</tspan></text>
</g>
<g class="row">

<text class="lbl" x="262" y="273.2" text-anchor="end">WebAssembly</text>
<rect class="bar k-wasm" x="270" y="261" width="130.9" height="17" rx="3"/>
<line class="noise" x1="400.2" x2="400.2" y1="261" y2="278"/>
<line class="noise" x1="401.7" x2="401.7" y1="261" y2="278"/>
<text class="val" x="407.7" y="273.2">0.24 s <tspan class="grp">Compiled + interpreted (VM)</tspan></text>
</g>
<g class="row">

<text class="lbl" x="262" y="296.2" text-anchor="end">Chapel</text>
<rect class="bar k-chapel" x="270" y="284" width="131.7" height="17" rx="3"/>
<line class="noise" x1="401.5" x2="401.5" y1="284" y2="301"/>
<line class="noise" x1="401.9" x2="401.9" y1="284" y2="301"/>
<text class="val" x="407.9" y="296.2">0.24 s <tspan class="grp">Bare metal / native-compiled</tspan></text>
</g>
<g class="row">

<text class="lbl" x="262" y="319.2" text-anchor="end">D (GDC)</text>
<rect class="bar k-gdc" x="270" y="307" width="132.2" height="17" rx="3"/>
<line class="noise" x1="399.4" x2="399.4" y1="307" y2="324"/>
<line class="noise" x1="405.0" x2="405.0" y1="307" y2="324"/>
<text class="val" x="411.0" y="319.2">0.24 s <tspan class="grp">Bare metal / native-compiled</tspan></text>
</g>
<g class="row">

<text class="lbl" x="262" y="342.2" text-anchor="end">C#</text>
<rect class="bar k-csharp" x="270" y="330" width="151.8" height="17" rx="3"/>
<line class="noise" x1="420.9" x2="420.9" y1="330" y2="347"/>
<line class="noise" x1="422.7" x2="422.7" y1="330" y2="347"/>
<text class="val" x="428.7" y="342.2">0.28 s <tspan class="grp">Compiled + interpreted (VM)</tspan></text>
</g>
<g class="row">

<text class="lbl" x="262" y="365.2" text-anchor="end">Swift</text>
<rect class="bar k-swift" x="270" y="353" width="158.9" height="17" rx="3"/>
<line class="noise" x1="428.6" x2="428.6" y1="353" y2="370"/>
<line class="noise" x1="429.2" x2="429.2" y1="353" y2="370"/>
<text class="val" x="435.2" y="365.2">0.29 s <tspan class="grp">Bare metal / native-compiled</tspan></text>
</g>
<g class="row">

<text class="lbl" x="262" y="388.2" text-anchor="end">Bun</text>
<rect class="bar k-bun" x="270" y="376" width="159.0" height="17" rx="3"/>
<line class="noise" x1="425.3" x2="425.3" y1="376" y2="393"/>
<line class="noise" x1="432.8" x2="432.8" y1="376" y2="393"/>
<text class="val" x="438.8" y="388.2">0.29 s <tspan class="grp">Interpreted</tspan></text>
</g>
<g class="row">

<text class="lbl" x="262" y="411.2" text-anchor="end">LuaJIT</text>
<rect class="bar k-luajit" x="270" y="399" width="159.2" height="17" rx="3"/>
<line class="noise" x1="425.7" x2="425.7" y1="399" y2="416"/>
<line class="noise" x1="432.8" x2="432.8" y1="399" y2="416"/>
<text class="val" x="438.8" y="411.2">0.29 s <tspan class="grp">Interpreted</tspan></text>
</g>
<g class="row">

<text class="lbl" x="262" y="434.2" text-anchor="end">Caspien naive · full</text>
<rect class="bar k-caspien" x="270" y="422" width="162.4" height="17" rx="3"/>
<line class="noise" x1="427.0" x2="427.0" y1="422" y2="439"/>
<line class="noise" x1="437.7" x2="437.7" y1="422" y2="439"/>
<text class="val" x="443.7" y="434.2">0.30 s <tspan class="grp">Caspien</tspan></text>
</g>
<g class="row">

<text class="lbl" x="262" y="457.2" text-anchor="end">OCaml</text>
<rect class="bar k-ocaml" x="270" y="445" width="175.7" height="17" rx="3"/>
<line class="noise" x1="444.7" x2="444.7" y1="445" y2="462"/>
<line class="noise" x1="446.7" x2="446.7" y1="445" y2="462"/>
<text class="val" x="452.7" y="457.2">0.32 s <tspan class="grp">Bare metal / native-compiled</tspan></text>
</g>
<g class="row">

<text class="lbl" x="262" y="480.2" text-anchor="end">Crystal</text>
<rect class="bar k-crystal" x="270" y="468" width="200.5" height="17" rx="3"/>
<line class="noise" x1="469.4" x2="469.4" y1="468" y2="485"/>
<line class="noise" x1="471.6" x2="471.6" y1="468" y2="485"/>
<text class="val" x="477.6" y="480.2">0.36 s <tspan class="grp">Bare metal / native-compiled</tspan></text>
</g>
<g class="row">

<text class="lbl" x="262" y="503.2" text-anchor="end">Node</text>
<rect class="bar k-node" x="270" y="491" width="209.7" height="17" rx="3"/>
<line class="noise" x1="478.7" x2="478.7" y1="491" y2="508"/>
<line class="noise" x1="480.6" x2="480.6" y1="491" y2="508"/>
<text class="val" x="486.6" y="503.2">0.38 s <tspan class="grp">Interpreted</tspan></text>
</g>
<g class="row">

<text class="lbl" x="262" y="526.2" text-anchor="end">Nim</text>
<rect class="bar k-nim" x="270" y="514" width="253.6" height="17" rx="3"/>
<line class="noise" x1="517.4" x2="517.4" y1="514" y2="531"/>
<line class="noise" x1="529.7" x2="529.7" y1="514" y2="531"/>
<text class="val" x="535.7" y="526.2">0.46 s <tspan class="grp">Bare metal / native-compiled</tspan></text>
</g>
<g class="row">

<text class="lbl" x="262" y="549.2" text-anchor="end">C -O0</text>
<rect class="bar k-c" x="270" y="537" width="309.7" height="17" rx="3"/>
<line class="noise" x1="577.1" x2="577.1" y1="537" y2="554"/>
<line class="noise" x1="582.2" x2="582.2" y1="537" y2="554"/>
<text class="val" x="588.2" y="549.2">0.56 s <tspan class="grp">Bare metal / native-compiled</tspan></text>
</g>
<g class="row">

<text class="lbl" x="262" y="572.2" text-anchor="end">Java</text>
<rect class="bar k-java" x="270" y="560" width="371.5" height="17" rx="3"/>
<line class="noise" x1="640.8" x2="640.8" y1="560" y2="577"/>
<line class="noise" x1="642.2" x2="642.2" y1="560" y2="577"/>
<text class="val" x="648.2" y="572.2">0.68 s <tspan class="grp">Compiled + interpreted (VM)</tspan></text>
</g>
<g class="row">

<text class="lbl" x="262" y="595.2" text-anchor="end">Kotlin</text>
<rect class="bar k-kotlin" x="270" y="583" width="393.0" height="17" rx="3"/>
<line class="noise" x1="661.1" x2="661.1" y1="583" y2="600"/>
<line class="noise" x1="664.8" x2="664.8" y1="583" y2="600"/>
<text class="val" x="670.8" y="595.2">0.71 s <tspan class="grp">Compiled + interpreted (VM)</tspan></text>
</g>
</g><text class="sub" x="16" y="696">Green = Caspien (hatched = optimisations off), red = native, purple = JVM/.NET/Wasm, blue = interpreted.</text><text class="sub" x="16" y="710">Gold lines: best time -/+ typical run-to-run noise (median repeat minus best).</text></svg>
