<svg xmlns="http://www.w3.org/2000/svg" viewBox="0 0 900 883" width="900" height="883" font-family="-apple-system,Segoe UI,Helvetica,Arial,sans-serif"><style>.grid{stroke:#dfe3dc;stroke-width:1}.noise{stroke:#e0a800;stroke-width:1.6}.tick{fill:#5d665f;font-size:11px}.lbl{fill:#1d2320;font-size:12.5px}.val{fill:#1d2320;font-size:12px}.grp{fill:#5d665f;font-size:10.5px}.hit{fill:transparent}.bar{fill:var(--c)}.bar.off{fill:url(#hatch);stroke:var(--c);stroke-width:1.2}.ttl{fill:#1d2320;font-size:15px;font-weight:600}.sub{fill:#5d665f;font-size:11.5px}.k-caspien{--c:#2e9e5b}.k-c{--c:#d9453d}.k-cpp{--c:#ef7a6e}.k-rust{--c:#a82a24}.k-go{--c:#f2a39a}.k-fortran{--c:#7d1f1a}.k-objc{--c:#bd5e55}.k-odin{--c:#e8745d}.k-zig{--c:#c94a6a}.k-chapel{--c:#f5b8ae}.k-ldc{--c:#e0523f}.k-gdc{--c:#f08a7a}.k-nim{--c:#b8322c}.k-crystal{--c:#d86a5a}.k-ocaml{--c:#f7c4bb}.k-swift{--c:#ca3a52}.k-codon{--c:#96302a}.k-java{--c:#7a3fb8}.k-csharp{--c:#5f45c8}.k-kotlin{--c:#b06ad8}.k-wasm{--c:#9a7ee0}.k-node{--c:#2f6fd6}.k-bun{--c:#7fb0f2}.k-luajit{--c:#1d4aa8}</style><defs><pattern id="hatch" width="6" height="6" patternUnits="userSpaceOnUse" patternTransform="rotate(45)"><rect width="6" height="6" fill="#cfe9d9"/><line x1="0" y1="0" x2="0" y2="6" stroke="#2e9e5b" stroke-width="2.4"/></pattern></defs><rect width="900" height="883" rx="8" fill="#ffffff" stroke="#d2d8cf"/><text class="ttl" x="16" y="24">Execution time: k-nucleotide (hash map)</text><text class="sub" x="16" y="40">20,000,000 bases  |  fastest of 3 runs, Linux 2-core VM; every output equals the C reference</text><g transform="translate(0,46)">
<line class="grid" x1="270.0" x2="270.0" y1="6" y2="771"/>
<text class="tick" x="270.0" y="785" text-anchor="middle">0</text>
<line class="grid" x1="416.7" x2="416.7" y1="6" y2="771"/>
<text class="tick" x="416.7" y="785" text-anchor="middle">10</text>
<line class="grid" x1="563.3" x2="563.3" y1="6" y2="771"/>
<text class="tick" x="563.3" y="785" text-anchor="middle">20</text>
<line class="grid" x1="710.0" x2="710.0" y1="6" y2="771"/>
<text class="tick" x="710.0" y="785" text-anchor="middle">30</text>
<g class="row">

<text class="lbl" x="262" y="20.2" text-anchor="end">Zig</text>
<rect class="bar k-zig" x="270" y="8" width="7.1" height="17" rx="3"/>
<line class="noise" x1="276.9" x2="276.9" y1="8" y2="25"/>
<line class="noise" x1="277.3" x2="277.3" y1="8" y2="25"/>
<text class="val" x="283.3" y="20.2">0.48 s <tspan class="grp">Bare metal / native-compiled</tspan></text>
</g>
<g class="row">

<text class="lbl" x="262" y="43.2" text-anchor="end">D (LDC)</text>
<rect class="bar k-ldc" x="270" y="31" width="7.7" height="17" rx="3"/>
<line class="noise" x1="277.7" x2="277.7" y1="31" y2="48"/>
<line class="noise" x1="277.7" x2="277.7" y1="31" y2="48"/>
<text class="val" x="283.7" y="43.2">0.52 s <tspan class="grp">Bare metal / native-compiled</tspan></text>
</g>
<g class="row">

<text class="lbl" x="262" y="66.2" text-anchor="end">Chapel</text>
<rect class="bar k-chapel" x="270" y="54" width="7.8" height="17" rx="3"/>
<line class="noise" x1="277.8" x2="277.8" y1="54" y2="71"/>
<line class="noise" x1="277.8" x2="277.8" y1="54" y2="71"/>
<text class="val" x="283.8" y="66.2">0.53 s <tspan class="grp">Bare metal / native-compiled</tspan></text>
</g>
<g class="row">

<text class="lbl" x="262" y="89.2" text-anchor="end">Odin</text>
<rect class="bar k-odin" x="270" y="77" width="8.1" height="17" rx="3"/>
<line class="noise" x1="278.0" x2="278.0" y1="77" y2="94"/>
<line class="noise" x1="278.1" x2="278.1" y1="77" y2="94"/>
<text class="val" x="284.1" y="89.2">0.55 s <tspan class="grp">Bare metal / native-compiled</tspan></text>
</g>
<g class="row">

<text class="lbl" x="262" y="112.2" text-anchor="end">C -O2 (leak)</text>
<rect class="bar k-c" x="270" y="100" width="8.8" height="17" rx="3"/>
<line class="noise" x1="278.8" x2="278.8" y1="100" y2="117"/>
<line class="noise" x1="278.8" x2="278.8" y1="100" y2="117"/>
<text class="val" x="284.8" y="112.2">0.60 s <tspan class="grp">Bare metal / native-compiled</tspan></text>
</g>
<g class="row">

<text class="lbl" x="262" y="135.2" text-anchor="end">D (GDC)</text>
<rect class="bar k-gdc" x="270" y="123" width="8.8" height="17" rx="3"/>
<line class="noise" x1="278.7" x2="278.7" y1="123" y2="140"/>
<line class="noise" x1="278.8" x2="278.8" y1="123" y2="140"/>
<text class="val" x="284.8" y="135.2">0.60 s <tspan class="grp">Bare metal / native-compiled</tspan></text>
</g>
<g class="row">

<text class="lbl" x="262" y="158.2" text-anchor="end">C -O2 (free)</text>
<rect class="bar k-c" x="270" y="146" width="9.1" height="17" rx="3"/>
<line class="noise" x1="279.0" x2="279.0" y1="146" y2="163"/>
<line class="noise" x1="279.3" x2="279.3" y1="146" y2="163"/>
<text class="val" x="285.3" y="158.2">0.62 s <tspan class="grp">Bare metal / native-compiled</tspan></text>
</g>
<g class="row">

<text class="lbl" x="262" y="181.2" text-anchor="end">Fortran</text>
<rect class="bar k-fortran" x="270" y="169" width="9.3" height="17" rx="3"/>
<line class="noise" x1="279.0" x2="279.0" y1="169" y2="186"/>
<line class="noise" x1="279.5" x2="279.5" y1="169" y2="186"/>
<text class="val" x="285.5" y="181.2">0.63 s <tspan class="grp">Bare metal / native-compiled</tspan></text>
</g>
<g class="row">

<text class="lbl" x="262" y="204.2" text-anchor="end">WebAssembly</text>
<rect class="bar k-wasm" x="270" y="192" width="10.0" height="17" rx="3"/>
<line class="noise" x1="279.7" x2="279.7" y1="192" y2="209"/>
<line class="noise" x1="280.4" x2="280.4" y1="192" y2="209"/>
<text class="val" x="286.4" y="204.2">0.68 s <tspan class="grp">Compiled + interpreted (VM)</tspan></text>
</g>
<g class="row">

<text class="lbl" x="262" y="227.2" text-anchor="end">Crystal</text>
<rect class="bar k-crystal" x="270" y="215" width="10.2" height="17" rx="3"/>
<line class="noise" x1="280.1" x2="280.1" y1="215" y2="232"/>
<line class="noise" x1="280.2" x2="280.2" y1="215" y2="232"/>
<text class="val" x="286.2" y="227.2">0.69 s <tspan class="grp">Bare metal / native-compiled</tspan></text>
</g>
<g class="row">

<text class="lbl" x="262" y="250.2" text-anchor="end">Codon</text>
<rect class="bar k-codon" x="270" y="238" width="10.3" height="17" rx="3"/>
<line class="noise" x1="280.2" x2="280.2" y1="238" y2="255"/>
<line class="noise" x1="280.4" x2="280.4" y1="238" y2="255"/>
<text class="val" x="286.4" y="250.2">0.70 s <tspan class="grp">Bare metal / native-compiled</tspan></text>
</g>
<g class="row">

<text class="lbl" x="262" y="273.2" text-anchor="end">Swift</text>
<rect class="bar k-swift" x="270" y="261" width="10.5" height="17" rx="3"/>
<line class="noise" x1="280.4" x2="280.4" y1="261" y2="278"/>
<line class="noise" x1="280.6" x2="280.6" y1="261" y2="278"/>
<text class="val" x="286.6" y="273.2">0.72 s <tspan class="grp">Bare metal / native-compiled</tspan></text>
</g>
<g class="row">

<text class="lbl" x="262" y="296.2" text-anchor="end">OCaml</text>
<rect class="bar k-ocaml" x="270" y="284" width="12.2" height="17" rx="3"/>
<line class="noise" x1="281.8" x2="281.8" y1="284" y2="301"/>
<line class="noise" x1="282.6" x2="282.6" y1="284" y2="301"/>
<text class="val" x="288.6" y="296.2">0.83 s <tspan class="grp">Bare metal / native-compiled</tspan></text>
</g>
<g class="row">

<text class="lbl" x="262" y="319.2" text-anchor="end">C -O0</text>
<rect class="bar k-c" x="270" y="307" width="12.6" height="17" rx="3"/>
<line class="noise" x1="282.5" x2="282.5" y1="307" y2="324"/>
<line class="noise" x1="282.7" x2="282.7" y1="307" y2="324"/>
<text class="val" x="288.7" y="319.2">0.86 s <tspan class="grp">Bare metal / native-compiled</tspan></text>
</g>
<g class="row">

<text class="lbl" x="262" y="342.2" text-anchor="end">Nim</text>
<rect class="bar k-nim" x="270" y="330" width="12.7" height="17" rx="3"/>
<line class="noise" x1="282.6" x2="282.6" y1="330" y2="347"/>
<line class="noise" x1="282.8" x2="282.8" y1="330" y2="347"/>
<text class="val" x="288.8" y="342.2">0.87 s <tspan class="grp">Bare metal / native-compiled</tspan></text>
</g>
<g class="row">

<text class="lbl" x="262" y="365.2" text-anchor="end">C++ -O2 (leak)</text>
<rect class="bar k-cpp" x="270" y="353" width="14.1" height="17" rx="3"/>
<line class="noise" x1="283.8" x2="283.8" y1="353" y2="370"/>
<line class="noise" x1="284.5" x2="284.5" y1="353" y2="370"/>
<text class="val" x="290.5" y="365.2">0.96 s <tspan class="grp">Bare metal / native-compiled</tspan></text>
</g>
<g class="row">

<text class="lbl" x="262" y="388.2" text-anchor="end">C++ -O2 (free)</text>
<rect class="bar k-cpp" x="270" y="376" width="14.2" height="17" rx="3"/>
<line class="noise" x1="284.1" x2="284.1" y1="376" y2="393"/>
<line class="noise" x1="284.4" x2="284.4" y1="376" y2="393"/>
<text class="val" x="290.4" y="388.2">0.97 s <tspan class="grp">Bare metal / native-compiled</tspan></text>
</g>
<g class="row">

<text class="lbl" x="262" y="411.2" text-anchor="end">Objective-C</text>
<rect class="bar k-objc" x="270" y="399" width="15.2" height="17" rx="3"/>
<line class="noise" x1="285.0" x2="285.0" y1="399" y2="416"/>
<line class="noise" x1="285.4" x2="285.4" y1="399" y2="416"/>
<text class="val" x="291.4" y="411.2">1.04 s <tspan class="grp">Bare metal / native-compiled</tspan></text>
</g>
<g class="row">

<text class="lbl" x="262" y="434.2" text-anchor="end">Caspien optimized safe · full</text>
<rect class="bar k-caspien" x="270" y="422" width="15.7" height="17" rx="3"/>
<line class="noise" x1="285.6" x2="285.6" y1="422" y2="439"/>
<line class="noise" x1="285.7" x2="285.7" y1="422" y2="439"/>
<text class="val" x="291.7" y="434.2">1.07 s <tspan class="grp">Caspien</tspan></text>
</g>
<g class="row">

<text class="lbl" x="262" y="457.2" text-anchor="end">Caspien optimized unsafe · full</text>
<rect class="bar k-caspien" x="270" y="445" width="20.0" height="17" rx="3"/>
<line class="noise" x1="288.7" x2="288.7" y1="445" y2="462"/>
<line class="noise" x1="291.2" x2="291.2" y1="445" y2="462"/>
<text class="val" x="297.2" y="457.2">1.36 s <tspan class="grp">Caspien</tspan></text>
</g>
<g class="row">

<text class="lbl" x="262" y="480.2" text-anchor="end">Go</text>
<rect class="bar k-go" x="270" y="468" width="23.8" height="17" rx="3"/>
<line class="noise" x1="293.2" x2="293.2" y1="468" y2="485"/>
<line class="noise" x1="294.3" x2="294.3" y1="468" y2="485"/>
<text class="val" x="300.3" y="480.2">1.62 s <tspan class="grp">Bare metal / native-compiled</tspan></text>
</g>
<g class="row">

<text class="lbl" x="262" y="503.2" text-anchor="end">Rust -O (leak)</text>
<rect class="bar k-rust" x="270" y="491" width="25.7" height="17" rx="3"/>
<line class="noise" x1="295.5" x2="295.5" y1="491" y2="508"/>
<line class="noise" x1="295.9" x2="295.9" y1="491" y2="508"/>
<text class="val" x="301.9" y="503.2">1.75 s <tspan class="grp">Bare metal / native-compiled</tspan></text>
</g>
<g class="row">

<text class="lbl" x="262" y="526.2" text-anchor="end">Rust -O (free)</text>
<rect class="bar k-rust" x="270" y="514" width="26.2" height="17" rx="3"/>
<line class="noise" x1="296.0" x2="296.0" y1="514" y2="531"/>
<line class="noise" x1="296.4" x2="296.4" y1="514" y2="531"/>
<text class="val" x="302.4" y="526.2">1.79 s <tspan class="grp">Bare metal / native-compiled</tspan></text>
</g>
<g class="row">

<text class="lbl" x="262" y="549.2" text-anchor="end">C#</text>
<rect class="bar k-csharp" x="270" y="537" width="28.6" height="17" rx="3"/>
<line class="noise" x1="298.6" x2="298.6" y1="537" y2="554"/>
<line class="noise" x1="298.6" x2="298.6" y1="537" y2="554"/>
<text class="val" x="304.6" y="549.2">1.95 s <tspan class="grp">Compiled + interpreted (VM)</tspan></text>
</g>
<g class="row">

<text class="lbl" x="262" y="572.2" text-anchor="end">LuaJIT</text>
<rect class="bar k-luajit" x="270" y="560" width="34.2" height="17" rx="3"/>
<line class="noise" x1="304.0" x2="304.0" y1="560" y2="577"/>
<line class="noise" x1="304.4" x2="304.4" y1="560" y2="577"/>
<text class="val" x="310.4" y="572.2">2.33 s <tspan class="grp">Interpreted</tspan></text>
</g>
<g class="row">

<text class="lbl" x="262" y="595.2" text-anchor="end">Java</text>
<rect class="bar k-java" x="270" y="583" width="37.8" height="17" rx="3"/>
<line class="noise" x1="307.7" x2="307.7" y1="583" y2="600"/>
<line class="noise" x1="307.9" x2="307.9" y1="583" y2="600"/>
<text class="val" x="313.9" y="595.2">2.58 s <tspan class="grp">Compiled + interpreted (VM)</tspan></text>
</g>
<g class="row">

<text class="lbl" x="262" y="618.2" text-anchor="end">Kotlin</text>
<rect class="bar k-kotlin" x="270" y="606" width="41.4" height="17" rx="3"/>
<line class="noise" x1="311.2" x2="311.2" y1="606" y2="623"/>
<line class="noise" x1="311.5" x2="311.5" y1="606" y2="623"/>
<text class="val" x="317.5" y="618.2">2.82 s <tspan class="grp">Compiled + interpreted (VM)</tspan></text>
</g>
<g class="row">

<text class="lbl" x="262" y="641.2" text-anchor="end">Caspien optimized unsafe · off</text>
<rect class="bar k-caspien off" x="270" y="629" width="44.3" height="17" rx="3"/>
<line class="noise" x1="313.3" x2="313.3" y1="629" y2="646"/>
<line class="noise" x1="315.4" x2="315.4" y1="629" y2="646"/>
<text class="val" x="321.4" y="641.2">3.02 s <tspan class="grp">Caspien</tspan></text>
</g>
<g class="row">

<text class="lbl" x="262" y="664.2" text-anchor="end">Caspien optimized safe · off</text>
<rect class="bar k-caspien off" x="270" y="652" width="51.1" height="17" rx="3"/>
<line class="noise" x1="316.2" x2="316.2" y1="652" y2="669"/>
<line class="noise" x1="326.0" x2="326.0" y1="652" y2="669"/>
<text class="val" x="332.0" y="664.2">3.48 s <tspan class="grp">Caspien</tspan></text>
</g>
<g class="row">

<text class="lbl" x="262" y="687.2" text-anchor="end">Node</text>
<rect class="bar k-node" x="270" y="675" width="58.2" height="17" rx="3"/>
<line class="noise" x1="327.9" x2="327.9" y1="675" y2="692"/>
<line class="noise" x1="328.4" x2="328.4" y1="675" y2="692"/>
<text class="val" x="334.4" y="687.2">3.97 s <tspan class="grp">Interpreted</tspan></text>
</g>
<g class="row">

<text class="lbl" x="262" y="710.2" text-anchor="end">Bun</text>
<rect class="bar k-bun" x="270" y="698" width="65.7" height="17" rx="3"/>
<line class="noise" x1="335.5" x2="335.5" y1="698" y2="715"/>
<line class="noise" x1="335.9" x2="335.9" y1="698" y2="715"/>
<text class="val" x="341.9" y="710.2">4.48 s <tspan class="grp">Interpreted</tspan></text>
</g>
<g class="row">

<text class="lbl" x="262" y="733.2" text-anchor="end">Caspien naive (stdlib HashMap) · full</text>
<rect class="bar k-caspien" x="270" y="721" width="73.2" height="17" rx="3"/>
<line class="noise" x1="342.4" x2="342.4" y1="721" y2="738"/>
<line class="noise" x1="344.1" x2="344.1" y1="721" y2="738"/>
<text class="val" x="350.1" y="733.2">4.99 s <tspan class="grp">Caspien</tspan></text>
</g>
<g class="row">

<text class="lbl" x="262" y="756.2" text-anchor="end">Caspien naive (stdlib HashMap) · off</text>
<rect class="bar k-caspien off" x="270" y="744" width="389.6" height="17" rx="3"/>
<line class="noise" x1="656.8" x2="656.8" y1="744" y2="761"/>
<line class="noise" x1="662.5" x2="662.5" y1="744" y2="761"/>
<text class="val" x="668.5" y="756.2">26.57 s <tspan class="grp">Caspien</tspan></text>
</g>
</g><text class="sub" x="16" y="857">Green = Caspien (hatched = optimisations off), red = native, purple = JVM/.NET/Wasm, blue = interpreted.</text><text class="sub" x="16" y="871">Gold lines: best time -/+ typical run-to-run noise (median repeat minus best).</text></svg>
