<svg xmlns="http://www.w3.org/2000/svg" viewBox="0 0 900 929" width="900" height="929" font-family="-apple-system,Segoe UI,Helvetica,Arial,sans-serif"><style>.grid{stroke:#343a35;stroke-width:1}.noise{stroke:#e0a800;stroke-width:1.6}.tick{fill:#a1aaa2;font-size:11px}.lbl{fill:#e8ece6;font-size:12.5px}.val{fill:#e8ece6;font-size:12px}.grp{fill:#a1aaa2;font-size:10.5px}.hit{fill:transparent}.bar{fill:var(--c)}.bar.off{fill:url(#hatch);stroke:var(--c);stroke-width:1.2}.ttl{fill:#e8ece6;font-size:15px;font-weight:600}.sub{fill:#a1aaa2;font-size:11.5px}.k-caspien{--c:#5cb37f}.k-c{--c:#e16e68}.k-cpp{--c:#f3978e}.k-rust{--c:#bb5954}.k-go{--c:#f5b7b0}.k-fortran{--c:#9a504c}.k-objc{--c:#cc817a}.k-odin{--c:#ed9381}.k-zig{--c:#d5728b}.k-chapel{--c:#f7c8c0}.k-ldc{--c:#e77869}.k-gdc{--c:#f3a497}.k-nim{--c:#c85f5a}.k-crystal{--c:#e18b7e}.k-ocaml{--c:#f9d1ca}.k-swift{--c:#d66578}.k-codon{--c:#ad5e59}.k-java{--c:#9769c8}.k-csharp{--c:#826ed4}.k-kotlin{--c:#c18be1}.k-wasm{--c:#b09ae7}.k-node{--c:#5d8fdf}.k-bun{--c:#9bc1f5}.k-luajit{--c:#4f72bb}</style><defs><pattern id="hatch" width="6" height="6" patternUnits="userSpaceOnUse" patternTransform="rotate(45)"><rect width="6" height="6" fill="#28402f"/><line x1="0" y1="0" x2="0" y2="6" stroke="#5cb37f" stroke-width="2.4"/></pattern></defs><rect width="900" height="929" rx="8" fill="#1f2220" stroke="#3a413b"/><text class="ttl" x="16" y="24">Execution time: N-body</text><text class="sub" x="16" y="40">5,000,000 steps  |  fastest of 5 runs, Linux 2-core VM; every output equals the C reference</text><g transform="translate(0,46)">
<line class="grid" x1="270.0" x2="270.0" y1="6" y2="817"/>
<text class="tick" x="270.0" y="831" text-anchor="middle">0</text>
<line class="grid" x1="416.7" x2="416.7" y1="6" y2="817"/>
<text class="tick" x="416.7" y="831" text-anchor="middle">0.5</text>
<line class="grid" x1="563.3" x2="563.3" y1="6" y2="817"/>
<text class="tick" x="563.3" y="831" text-anchor="middle">1</text>
<line class="grid" x1="710.0" x2="710.0" y1="6" y2="817"/>
<text class="tick" x="710.0" y="831" text-anchor="middle">1.5</text>
<g class="row">

<text class="lbl" x="262" y="20.2" text-anchor="end">Zig</text>
<rect class="bar k-zig" x="270" y="8" width="62.9" height="17" rx="3"/>
<line class="noise" x1="332.7" x2="332.7" y1="8" y2="25"/>
<line class="noise" x1="333.1" x2="333.1" y1="8" y2="25"/>
<text class="val" x="339.1" y="20.2">0.21 s <tspan class="grp">Bare metal / native-compiled</tspan></text>
</g>
<g class="row">

<text class="lbl" x="262" y="43.2" text-anchor="end">Rust -O</text>
<rect class="bar k-rust" x="270" y="31" width="65.8" height="17" rx="3"/>
<line class="noise" x1="335.6" x2="335.6" y1="31" y2="48"/>
<line class="noise" x1="336.0" x2="336.0" y1="31" y2="48"/>
<text class="val" x="342.0" y="43.2">0.22 s <tspan class="grp">Bare metal / native-compiled</tspan></text>
</g>
<g class="row">

<text class="lbl" x="262" y="66.2" text-anchor="end">Chapel</text>
<rect class="bar k-chapel" x="270" y="54" width="70.0" height="17" rx="3"/>
<line class="noise" x1="339.8" x2="339.8" y1="54" y2="71"/>
<line class="noise" x1="340.3" x2="340.3" y1="54" y2="71"/>
<text class="val" x="346.3" y="66.2">0.24 s <tspan class="grp">Bare metal / native-compiled</tspan></text>
</g>
<g class="row">

<text class="lbl" x="262" y="89.2" text-anchor="end">C f32 -O2</text>
<rect class="bar k-c" x="270" y="77" width="74.9" height="17" rx="3"/>
<line class="noise" x1="343.2" x2="343.2" y1="77" y2="94"/>
<line class="noise" x1="346.6" x2="346.6" y1="77" y2="94"/>
<text class="val" x="352.6" y="89.2">0.26 s <tspan class="grp">Bare metal / native-compiled</tspan></text>
</g>
<g class="row">

<text class="lbl" x="262" y="112.2" text-anchor="end">Fortran</text>
<rect class="bar k-fortran" x="270" y="100" width="81.3" height="17" rx="3"/>
<line class="noise" x1="350.5" x2="350.5" y1="100" y2="117"/>
<line class="noise" x1="352.0" x2="352.0" y1="100" y2="117"/>
<text class="val" x="358.0" y="112.2">0.28 s <tspan class="grp">Bare metal / native-compiled</tspan></text>
</g>
<g class="row">

<text class="lbl" x="262" y="135.2" text-anchor="end">C++ -O2</text>
<rect class="bar k-cpp" x="270" y="123" width="81.3" height="17" rx="3"/>
<line class="noise" x1="350.8" x2="350.8" y1="123" y2="140"/>
<line class="noise" x1="351.8" x2="351.8" y1="123" y2="140"/>
<text class="val" x="357.8" y="135.2">0.28 s <tspan class="grp">Bare metal / native-compiled</tspan></text>
</g>
<g class="row">

<text class="lbl" x="262" y="158.2" text-anchor="end">D (LDC)</text>
<rect class="bar k-ldc" x="270" y="146" width="81.5" height="17" rx="3"/>
<line class="noise" x1="350.9" x2="350.9" y1="146" y2="163"/>
<line class="noise" x1="352.0" x2="352.0" y1="146" y2="163"/>
<text class="val" x="358.0" y="158.2">0.28 s <tspan class="grp">Bare metal / native-compiled</tspan></text>
</g>
<g class="row">

<text class="lbl" x="262" y="181.2" text-anchor="end">C -O2</text>
<rect class="bar k-c" x="270" y="169" width="81.5" height="17" rx="3"/>
<line class="noise" x1="351.1" x2="351.1" y1="169" y2="186"/>
<line class="noise" x1="351.9" x2="351.9" y1="169" y2="186"/>
<text class="val" x="357.9" y="181.2">0.28 s <tspan class="grp">Bare metal / native-compiled</tspan></text>
</g>
<g class="row">

<text class="lbl" x="262" y="204.2" text-anchor="end">Objective-C</text>
<rect class="bar k-objc" x="270" y="192" width="81.5" height="17" rx="3"/>
<line class="noise" x1="351.4" x2="351.4" y1="192" y2="209"/>
<line class="noise" x1="351.7" x2="351.7" y1="192" y2="209"/>
<text class="val" x="357.7" y="204.2">0.28 s <tspan class="grp">Bare metal / native-compiled</tspan></text>
</g>
<g class="row">

<text class="lbl" x="262" y="227.2" text-anchor="end">D (GDC)</text>
<rect class="bar k-gdc" x="270" y="215" width="82.7" height="17" rx="3"/>
<line class="noise" x1="352.4" x2="352.4" y1="215" y2="232"/>
<line class="noise" x1="353.1" x2="353.1" y1="215" y2="232"/>
<text class="val" x="359.1" y="227.2">0.28 s <tspan class="grp">Bare metal / native-compiled</tspan></text>
</g>
<g class="row">

<text class="lbl" x="262" y="250.2" text-anchor="end">Swift</text>
<rect class="bar k-swift" x="270" y="238" width="87.9" height="17" rx="3"/>
<line class="noise" x1="356.8" x2="356.8" y1="238" y2="255"/>
<line class="noise" x1="359.1" x2="359.1" y1="238" y2="255"/>
<text class="val" x="365.1" y="250.2">0.30 s <tspan class="grp">Bare metal / native-compiled</tspan></text>
</g>
<g class="row">

<text class="lbl" x="262" y="273.2" text-anchor="end">Nim</text>
<rect class="bar k-nim" x="270" y="261" width="88.0" height="17" rx="3"/>
<line class="noise" x1="357.3" x2="357.3" y1="261" y2="278"/>
<line class="noise" x1="358.7" x2="358.7" y1="261" y2="278"/>
<text class="val" x="364.7" y="273.2">0.30 s <tspan class="grp">Bare metal / native-compiled</tspan></text>
</g>
<g class="row">

<text class="lbl" x="262" y="296.2" text-anchor="end">Caspien scalars f64 · full</text>
<rect class="bar k-caspien" x="270" y="284" width="95.4" height="17" rx="3"/>
<line class="noise" x1="363.1" x2="363.1" y1="284" y2="301"/>
<line class="noise" x1="367.7" x2="367.7" y1="284" y2="301"/>
<text class="val" x="373.7" y="296.2">0.33 s <tspan class="grp">Caspien</tspan></text>
</g>
<g class="row">

<text class="lbl" x="262" y="319.2" text-anchor="end">Odin</text>
<rect class="bar k-odin" x="270" y="307" width="97.0" height="17" rx="3"/>
<line class="noise" x1="363.1" x2="363.1" y1="307" y2="324"/>
<line class="noise" x1="370.9" x2="370.9" y1="307" y2="324"/>
<text class="val" x="376.9" y="319.2">0.33 s <tspan class="grp">Bare metal / native-compiled</tspan></text>
</g>
<g class="row">

<text class="lbl" x="262" y="342.2" text-anchor="end">WebAssembly</text>
<rect class="bar k-wasm" x="270" y="330" width="97.2" height="17" rx="3"/>
<line class="noise" x1="364.1" x2="364.1" y1="330" y2="347"/>
<line class="noise" x1="370.3" x2="370.3" y1="330" y2="347"/>
<text class="val" x="376.3" y="342.2">0.33 s <tspan class="grp">Compiled + interpreted (VM)</tspan></text>
</g>
<g class="row">

<text class="lbl" x="262" y="365.2" text-anchor="end">Caspien arr f64 · full</text>
<rect class="bar k-caspien" x="270" y="353" width="97.8" height="17" rx="3"/>
<line class="noise" x1="366.1" x2="366.1" y1="353" y2="370"/>
<line class="noise" x1="369.5" x2="369.5" y1="353" y2="370"/>
<text class="val" x="375.5" y="365.2">0.33 s <tspan class="grp">Caspien</tspan></text>
</g>
<g class="row">

<text class="lbl" x="262" y="388.2" text-anchor="end">OCaml</text>
<rect class="bar k-ocaml" x="270" y="376" width="103.9" height="17" rx="3"/>
<line class="noise" x1="373.7" x2="373.7" y1="376" y2="393"/>
<line class="noise" x1="374.0" x2="374.0" y1="376" y2="393"/>
<text class="val" x="380.0" y="388.2">0.35 s <tspan class="grp">Bare metal / native-compiled</tspan></text>
</g>
<g class="row">

<text class="lbl" x="262" y="411.2" text-anchor="end">Codon</text>
<rect class="bar k-codon" x="270" y="399" width="105.2" height="17" rx="3"/>
<line class="noise" x1="370.6" x2="370.6" y1="399" y2="416"/>
<line class="noise" x1="379.8" x2="379.8" y1="399" y2="416"/>
<text class="val" x="385.8" y="411.2">0.36 s <tspan class="grp">Bare metal / native-compiled</tspan></text>
</g>
<g class="row">

<text class="lbl" x="262" y="434.2" text-anchor="end">Caspien arr f32 · full</text>
<rect class="bar k-caspien" x="270" y="422" width="105.4" height="17" rx="3"/>
<line class="noise" x1="372.7" x2="372.7" y1="422" y2="439"/>
<line class="noise" x1="378.1" x2="378.1" y1="422" y2="439"/>
<text class="val" x="384.1" y="434.2">0.36 s <tspan class="grp">Caspien</tspan></text>
</g>
<g class="row">

<text class="lbl" x="262" y="457.2" text-anchor="end">Crystal</text>
<rect class="bar k-crystal" x="270" y="445" width="106.4" height="17" rx="3"/>
<line class="noise" x1="373.8" x2="373.8" y1="445" y2="462"/>
<line class="noise" x1="378.9" x2="378.9" y1="445" y2="462"/>
<text class="val" x="384.9" y="457.2">0.36 s <tspan class="grp">Bare metal / native-compiled</tspan></text>
</g>
<g class="row">

<text class="lbl" x="262" y="480.2" text-anchor="end">Caspien scalars f32 · full</text>
<rect class="bar k-caspien" x="270" y="468" width="109.0" height="17" rx="3"/>
<line class="noise" x1="376.4" x2="376.4" y1="468" y2="485"/>
<line class="noise" x1="381.7" x2="381.7" y1="468" y2="485"/>
<text class="val" x="387.7" y="480.2">0.37 s <tspan class="grp">Caspien</tspan></text>
</g>
<g class="row">

<text class="lbl" x="262" y="503.2" text-anchor="end">Java</text>
<rect class="bar k-java" x="270" y="491" width="116.2" height="17" rx="3"/>
<line class="noise" x1="385.3" x2="385.3" y1="491" y2="508"/>
<line class="noise" x1="387.1" x2="387.1" y1="491" y2="508"/>
<text class="val" x="393.1" y="503.2">0.40 s <tspan class="grp">Compiled + interpreted (VM)</tspan></text>
</g>
<g class="row">

<text class="lbl" x="262" y="526.2" text-anchor="end">Kotlin</text>
<rect class="bar k-kotlin" x="270" y="514" width="120.7" height="17" rx="3"/>
<line class="noise" x1="390.4" x2="390.4" y1="514" y2="531"/>
<line class="noise" x1="391.0" x2="391.0" y1="514" y2="531"/>
<text class="val" x="397.0" y="526.2">0.41 s <tspan class="grp">Compiled + interpreted (VM)</tspan></text>
</g>
<g class="row">

<text class="lbl" x="262" y="549.2" text-anchor="end">Go</text>
<rect class="bar k-go" x="270" y="537" width="141.1" height="17" rx="3"/>
<line class="noise" x1="411.1" x2="411.1" y1="537" y2="554"/>
<line class="noise" x1="411.2" x2="411.2" y1="537" y2="554"/>
<text class="val" x="417.2" y="549.2">0.48 s <tspan class="grp">Bare metal / native-compiled</tspan></text>
</g>
<g class="row">

<text class="lbl" x="262" y="572.2" text-anchor="end">C#</text>
<rect class="bar k-csharp" x="270" y="560" width="144.7" height="17" rx="3"/>
<line class="noise" x1="412.7" x2="412.7" y1="560" y2="577"/>
<line class="noise" x1="416.7" x2="416.7" y1="560" y2="577"/>
<text class="val" x="422.7" y="572.2">0.49 s <tspan class="grp">Compiled + interpreted (VM)</tspan></text>
</g>
<g class="row">

<text class="lbl" x="262" y="595.2" text-anchor="end">Caspien plain f64 · full</text>
<rect class="bar k-caspien" x="270" y="583" width="151.1" height="17" rx="3"/>
<line class="noise" x1="417.8" x2="417.8" y1="583" y2="600"/>
<line class="noise" x1="424.5" x2="424.5" y1="583" y2="600"/>
<text class="val" x="430.5" y="595.2">0.52 s <tspan class="grp">Caspien</tspan></text>
</g>
<g class="row">

<text class="lbl" x="262" y="618.2" text-anchor="end">Caspien loop f64 · full</text>
<rect class="bar k-caspien" x="270" y="606" width="154.0" height="17" rx="3"/>
<line class="noise" x1="422.0" x2="422.0" y1="606" y2="623"/>
<line class="noise" x1="426.0" x2="426.0" y1="606" y2="623"/>
<text class="val" x="432.0" y="618.2">0.52 s <tspan class="grp">Caspien</tspan></text>
</g>
<g class="row">

<text class="lbl" x="262" y="641.2" text-anchor="end">Node</text>
<rect class="bar k-node" x="270" y="629" width="154.8" height="17" rx="3"/>
<line class="noise" x1="424.8" x2="424.8" y1="629" y2="646"/>
<line class="noise" x1="424.8" x2="424.8" y1="629" y2="646"/>
<text class="val" x="430.8" y="641.2">0.53 s <tspan class="grp">Interpreted</tspan></text>
</g>
<g class="row">

<text class="lbl" x="262" y="664.2" text-anchor="end">Caspien plain f32 · full</text>
<rect class="bar k-caspien" x="270" y="652" width="158.6" height="17" rx="3"/>
<line class="noise" x1="421.2" x2="421.2" y1="652" y2="669"/>
<line class="noise" x1="436.0" x2="436.0" y1="652" y2="669"/>
<text class="val" x="442.0" y="664.2">0.54 s <tspan class="grp">Caspien</tspan></text>
</g>
<g class="row">

<text class="lbl" x="262" y="687.2" text-anchor="end">Caspien loop f32 · full</text>
<rect class="bar k-caspien" x="270" y="675" width="158.7" height="17" rx="3"/>
<line class="noise" x1="426.2" x2="426.2" y1="675" y2="692"/>
<line class="noise" x1="431.3" x2="431.3" y1="675" y2="692"/>
<text class="val" x="437.3" y="687.2">0.54 s <tspan class="grp">Caspien</tspan></text>
</g>
<g class="row">

<text class="lbl" x="262" y="710.2" text-anchor="end">Caspien natural f64 · full</text>
<rect class="bar k-caspien" x="270" y="698" width="161.2" height="17" rx="3"/>
<line class="noise" x1="428.5" x2="428.5" y1="698" y2="715"/>
<line class="noise" x1="434.0" x2="434.0" y1="698" y2="715"/>
<text class="val" x="440.0" y="710.2">0.55 s <tspan class="grp">Caspien</tspan></text>
</g>
<g class="row">

<text class="lbl" x="262" y="733.2" text-anchor="end">Bun</text>
<rect class="bar k-bun" x="270" y="721" width="188.3" height="17" rx="3"/>
<line class="noise" x1="457.0" x2="457.0" y1="721" y2="738"/>
<line class="noise" x1="459.7" x2="459.7" y1="721" y2="738"/>
<text class="val" x="465.7" y="733.2">0.64 s <tspan class="grp">Interpreted</tspan></text>
</g>
<g class="row">

<text class="lbl" x="262" y="756.2" text-anchor="end">LuaJIT</text>
<rect class="bar k-luajit" x="270" y="744" width="355.4" height="17" rx="3"/>
<line class="noise" x1="623.6" x2="623.6" y1="744" y2="761"/>
<line class="noise" x1="627.2" x2="627.2" y1="744" y2="761"/>
<text class="val" x="633.2" y="756.2">1.21 s <tspan class="grp">Interpreted</tspan></text>
</g>
<g class="row">

<text class="lbl" x="262" y="779.2" text-anchor="end">C f32 -O0</text>
<rect class="bar k-c" x="270" y="767" width="374.4" height="17" rx="3"/>
<line class="noise" x1="628.5" x2="628.5" y1="767" y2="784"/>
<line class="noise" x1="660.4" x2="660.4" y1="767" y2="784"/>
<text class="val" x="666.4" y="779.2">1.28 s <tspan class="grp">Bare metal / native-compiled</tspan></text>
</g>
<g class="row">

<text class="lbl" x="262" y="802.2" text-anchor="end">C -O0</text>
<rect class="bar k-c" x="270" y="790" width="398.6" height="17" rx="3"/>
<line class="noise" x1="659.8" x2="659.8" y1="790" y2="807"/>
<line class="noise" x1="677.3" x2="677.3" y1="790" y2="807"/>
<text class="val" x="683.3" y="802.2">1.36 s <tspan class="grp">Bare metal / native-compiled</tspan></text>
</g>
</g><text class="sub" x="16" y="903">Green = Caspien (hatched = optimisations off), red = native, purple = JVM/.NET/Wasm, blue = interpreted.</text><text class="sub" x="16" y="917">Gold lines: best time -/+ typical run-to-run noise (median repeat minus best).</text></svg>
