<svg xmlns="http://www.w3.org/2000/svg" viewBox="0 0 900 1228" width="900" height="1228" font-family="-apple-system,Segoe UI,Helvetica,Arial,sans-serif"><style>.grid{stroke:#343a35;stroke-width:1}.noise{stroke:#e0a800;stroke-width:1.6}.tick{fill:#a1aaa2;font-size:11px}.lbl{fill:#e8ece6;font-size:12.5px}.val{fill:#e8ece6;font-size:12px}.grp{fill:#a1aaa2;font-size:10.5px}.hit{fill:transparent}.bar{fill:var(--c)}.bar.off{fill:url(#hatch);stroke:var(--c);stroke-width:1.2}.ttl{fill:#e8ece6;font-size:15px;font-weight:600}.sub{fill:#a1aaa2;font-size:11.5px}.k-caspien{--c:#5cb37f}.k-c{--c:#e16e68}.k-cpp{--c:#f3978e}.k-rust{--c:#bb5954}.k-go{--c:#f5b7b0}.k-fortran{--c:#9a504c}.k-objc{--c:#cc817a}.k-odin{--c:#ed9381}.k-zig{--c:#d5728b}.k-chapel{--c:#f7c8c0}.k-ldc{--c:#e77869}.k-gdc{--c:#f3a497}.k-nim{--c:#c85f5a}.k-crystal{--c:#e18b7e}.k-ocaml{--c:#f9d1ca}.k-swift{--c:#d66578}.k-codon{--c:#ad5e59}.k-java{--c:#9769c8}.k-csharp{--c:#826ed4}.k-kotlin{--c:#c18be1}.k-wasm{--c:#b09ae7}.k-node{--c:#5d8fdf}.k-bun{--c:#9bc1f5}.k-luajit{--c:#4f72bb}</style><defs><pattern id="hatch" width="6" height="6" patternUnits="userSpaceOnUse" patternTransform="rotate(45)"><rect width="6" height="6" fill="#28402f"/><line x1="0" y1="0" x2="0" y2="6" stroke="#5cb37f" stroke-width="2.4"/></pattern></defs><rect width="900" height="1228" rx="8" fill="#1f2220" stroke="#3a413b"/><text class="ttl" x="16" y="24">Execution time: N-body</text><text class="sub" x="16" y="40">5,000,000 steps  |  fastest of 5 runs, Linux 2-core VM; every output equals the C reference</text><g transform="translate(0,46)">
<line class="grid" x1="270.0" x2="270.0" y1="6" y2="1116"/>
<text class="tick" x="270.0" y="1130" text-anchor="middle">0</text>
<line class="grid" x1="358.0" x2="358.0" y1="6" y2="1116"/>
<text class="tick" x="358.0" y="1130" text-anchor="middle">1</text>
<line class="grid" x1="446.0" x2="446.0" y1="6" y2="1116"/>
<text class="tick" x="446.0" y="1130" text-anchor="middle">2</text>
<line class="grid" x1="534.0" x2="534.0" y1="6" y2="1116"/>
<text class="tick" x="534.0" y="1130" text-anchor="middle">3</text>
<line class="grid" x1="622.0" x2="622.0" y1="6" y2="1116"/>
<text class="tick" x="622.0" y="1130" text-anchor="middle">4</text>
<line class="grid" x1="710.0" x2="710.0" y1="6" y2="1116"/>
<text class="tick" x="710.0" y="1130" text-anchor="middle">5</text>
<g class="row">

<text class="lbl" x="262" y="20.2" text-anchor="end">Zig</text>
<rect class="bar k-zig" x="270" y="8" width="17.9" height="17" rx="3"/>
<line class="noise" x1="287.3" x2="287.3" y1="8" y2="25"/>
<line class="noise" x1="288.6" x2="288.6" y1="8" y2="25"/>
<text class="val" x="294.6" y="20.2">0.20 s <tspan class="grp">Bare metal / native-compiled</tspan></text>
</g>
<g class="row">

<text class="lbl" x="262" y="43.2" text-anchor="end">Chapel</text>
<rect class="bar k-chapel" x="270" y="31" width="19.2" height="17" rx="3"/>
<line class="noise" x1="288.4" x2="288.4" y1="31" y2="48"/>
<line class="noise" x1="289.9" x2="289.9" y1="31" y2="48"/>
<text class="val" x="295.9" y="43.2">0.22 s <tspan class="grp">Bare metal / native-compiled</tspan></text>
</g>
<g class="row">

<text class="lbl" x="262" y="66.2" text-anchor="end">Rust -O</text>
<rect class="bar k-rust" x="270" y="54" width="19.8" height="17" rx="3"/>
<line class="noise" x1="289.6" x2="289.6" y1="54" y2="71"/>
<line class="noise" x1="290.0" x2="290.0" y1="54" y2="71"/>
<text class="val" x="296.0" y="66.2">0.23 s <tspan class="grp">Bare metal / native-compiled</tspan></text>
</g>
<g class="row">

<text class="lbl" x="262" y="89.2" text-anchor="end">C f32 -O2</text>
<rect class="bar k-c" x="270" y="77" width="22.0" height="17" rx="3"/>
<line class="noise" x1="291.9" x2="291.9" y1="77" y2="94"/>
<line class="noise" x1="292.2" x2="292.2" y1="77" y2="94"/>
<text class="val" x="298.2" y="89.2">0.25 s <tspan class="grp">Bare metal / native-compiled</tspan></text>
</g>
<g class="row">

<text class="lbl" x="262" y="112.2" text-anchor="end">C -O2</text>
<rect class="bar k-c" x="270" y="100" width="22.4" height="17" rx="3"/>
<line class="noise" x1="291.6" x2="291.6" y1="100" y2="117"/>
<line class="noise" x1="293.1" x2="293.1" y1="100" y2="117"/>
<text class="val" x="299.1" y="112.2">0.25 s <tspan class="grp">Bare metal / native-compiled</tspan></text>
</g>
<g class="row">

<text class="lbl" x="262" y="135.2" text-anchor="end">D (GDC)</text>
<rect class="bar k-gdc" x="270" y="123" width="22.5" height="17" rx="3"/>
<line class="noise" x1="292.4" x2="292.4" y1="123" y2="140"/>
<line class="noise" x1="292.6" x2="292.6" y1="123" y2="140"/>
<text class="val" x="298.6" y="135.2">0.26 s <tspan class="grp">Bare metal / native-compiled</tspan></text>
</g>
<g class="row">

<text class="lbl" x="262" y="158.2" text-anchor="end">D (LDC)</text>
<rect class="bar k-ldc" x="270" y="146" width="22.6" height="17" rx="3"/>
<line class="noise" x1="292.3" x2="292.3" y1="146" y2="163"/>
<line class="noise" x1="292.9" x2="292.9" y1="146" y2="163"/>
<text class="val" x="298.9" y="158.2">0.26 s <tspan class="grp">Bare metal / native-compiled</tspan></text>
</g>
<g class="row">

<text class="lbl" x="262" y="181.2" text-anchor="end">Objective-C</text>
<rect class="bar k-objc" x="270" y="169" width="23.5" height="17" rx="3"/>
<line class="noise" x1="293.0" x2="293.0" y1="169" y2="186"/>
<line class="noise" x1="294.0" x2="294.0" y1="169" y2="186"/>
<text class="val" x="300.0" y="181.2">0.27 s <tspan class="grp">Bare metal / native-compiled</tspan></text>
</g>
<g class="row">

<text class="lbl" x="262" y="204.2" text-anchor="end">Fortran</text>
<rect class="bar k-fortran" x="270" y="192" width="24.0" height="17" rx="3"/>
<line class="noise" x1="293.2" x2="293.2" y1="192" y2="209"/>
<line class="noise" x1="294.9" x2="294.9" y1="192" y2="209"/>
<text class="val" x="300.9" y="204.2">0.27 s <tspan class="grp">Bare metal / native-compiled</tspan></text>
</g>
<g class="row">

<text class="lbl" x="262" y="227.2" text-anchor="end">Nim</text>
<rect class="bar k-nim" x="270" y="215" width="24.2" height="17" rx="3"/>
<line class="noise" x1="293.5" x2="293.5" y1="215" y2="232"/>
<line class="noise" x1="294.8" x2="294.8" y1="215" y2="232"/>
<text class="val" x="300.8" y="227.2">0.27 s <tspan class="grp">Bare metal / native-compiled</tspan></text>
</g>
<g class="row">

<text class="lbl" x="262" y="250.2" text-anchor="end">C++ -O2</text>
<rect class="bar k-cpp" x="270" y="238" width="24.2" height="17" rx="3"/>
<line class="noise" x1="293.8" x2="293.8" y1="238" y2="255"/>
<line class="noise" x1="294.6" x2="294.6" y1="238" y2="255"/>
<text class="val" x="300.6" y="250.2">0.27 s <tspan class="grp">Bare metal / native-compiled</tspan></text>
</g>
<g class="row">

<text class="lbl" x="262" y="273.2" text-anchor="end">Swift</text>
<rect class="bar k-swift" x="270" y="261" width="24.2" height="17" rx="3"/>
<line class="noise" x1="293.4" x2="293.4" y1="261" y2="278"/>
<line class="noise" x1="295.1" x2="295.1" y1="261" y2="278"/>
<text class="val" x="301.1" y="273.2">0.28 s <tspan class="grp">Bare metal / native-compiled</tspan></text>
</g>
<g class="row">

<text class="lbl" x="262" y="296.2" text-anchor="end">Caspien plain f64 · full</text>
<rect class="bar k-caspien" x="270" y="284" width="26.3" height="17" rx="3"/>
<line class="noise" x1="294.7" x2="294.7" y1="284" y2="301"/>
<line class="noise" x1="297.9" x2="297.9" y1="284" y2="301"/>
<text class="val" x="303.9" y="296.2">0.30 s <tspan class="grp">Caspien</tspan></text>
</g>
<g class="row">

<text class="lbl" x="262" y="319.2" text-anchor="end">Caspien scalars f64 · full</text>
<rect class="bar k-caspien" x="270" y="307" width="26.5" height="17" rx="3"/>
<line class="noise" x1="295.5" x2="295.5" y1="307" y2="324"/>
<line class="noise" x1="297.5" x2="297.5" y1="307" y2="324"/>
<text class="val" x="303.5" y="319.2">0.30 s <tspan class="grp">Caspien</tspan></text>
</g>
<g class="row">

<text class="lbl" x="262" y="342.2" text-anchor="end">Caspien arr f64 · full</text>
<rect class="bar k-caspien" x="270" y="330" width="26.8" height="17" rx="3"/>
<line class="noise" x1="294.9" x2="294.9" y1="330" y2="347"/>
<line class="noise" x1="298.7" x2="298.7" y1="330" y2="347"/>
<text class="val" x="304.7" y="342.2">0.30 s <tspan class="grp">Caspien</tspan></text>
</g>
<g class="row">

<text class="lbl" x="262" y="365.2" text-anchor="end">Odin</text>
<rect class="bar k-odin" x="270" y="353" width="28.1" height="17" rx="3"/>
<line class="noise" x1="296.6" x2="296.6" y1="353" y2="370"/>
<line class="noise" x1="299.6" x2="299.6" y1="353" y2="370"/>
<text class="val" x="305.6" y="365.2">0.32 s <tspan class="grp">Bare metal / native-compiled</tspan></text>
</g>
<g class="row">

<text class="lbl" x="262" y="388.2" text-anchor="end">WebAssembly</text>
<rect class="bar k-wasm" x="270" y="376" width="28.5" height="17" rx="3"/>
<line class="noise" x1="297.3" x2="297.3" y1="376" y2="393"/>
<line class="noise" x1="299.6" x2="299.6" y1="376" y2="393"/>
<text class="val" x="305.6" y="388.2">0.32 s <tspan class="grp">Compiled + interpreted (VM)</tspan></text>
</g>
<g class="row">

<text class="lbl" x="262" y="411.2" text-anchor="end">Caspien arr f32 · full</text>
<rect class="bar k-caspien" x="270" y="399" width="29.0" height="17" rx="3"/>
<line class="noise" x1="297.6" x2="297.6" y1="399" y2="416"/>
<line class="noise" x1="300.3" x2="300.3" y1="399" y2="416"/>
<text class="val" x="306.3" y="411.2">0.33 s <tspan class="grp">Caspien</tspan></text>
</g>
<g class="row">

<text class="lbl" x="262" y="434.2" text-anchor="end">Caspien aos_unsafe f64 · full</text>
<rect class="bar k-caspien" x="270" y="422" width="29.2" height="17" rx="3"/>
<line class="noise" x1="298.8" x2="298.8" y1="422" y2="439"/>
<line class="noise" x1="299.7" x2="299.7" y1="422" y2="439"/>
<text class="val" x="305.7" y="434.2">0.33 s <tspan class="grp">Caspien</tspan></text>
</g>
<g class="row">

<text class="lbl" x="262" y="457.2" text-anchor="end">Caspien loop f32 · full</text>
<rect class="bar k-caspien" x="270" y="445" width="29.3" height="17" rx="3"/>
<line class="noise" x1="298.7" x2="298.7" y1="445" y2="462"/>
<line class="noise" x1="300.0" x2="300.0" y1="445" y2="462"/>
<text class="val" x="306.0" y="457.2">0.33 s <tspan class="grp">Caspien</tspan></text>
</g>
<g class="row">

<text class="lbl" x="262" y="480.2" text-anchor="end">Crystal</text>
<rect class="bar k-crystal" x="270" y="468" width="29.6" height="17" rx="3"/>
<line class="noise" x1="298.8" x2="298.8" y1="468" y2="485"/>
<line class="noise" x1="300.4" x2="300.4" y1="468" y2="485"/>
<text class="val" x="306.4" y="480.2">0.34 s <tspan class="grp">Bare metal / native-compiled</tspan></text>
</g>
<g class="row">

<text class="lbl" x="262" y="503.2" text-anchor="end">Caspien aos_safe f64 · full</text>
<rect class="bar k-caspien" x="270" y="491" width="29.8" height="17" rx="3"/>
<line class="noise" x1="298.6" x2="298.6" y1="491" y2="508"/>
<line class="noise" x1="300.9" x2="300.9" y1="491" y2="508"/>
<text class="val" x="306.9" y="503.2">0.34 s <tspan class="grp">Caspien</tspan></text>
</g>
<g class="row">

<text class="lbl" x="262" y="526.2" text-anchor="end">Codon</text>
<rect class="bar k-codon" x="270" y="514" width="30.1" height="17" rx="3"/>
<line class="noise" x1="299.4" x2="299.4" y1="514" y2="531"/>
<line class="noise" x1="300.7" x2="300.7" y1="514" y2="531"/>
<text class="val" x="306.7" y="526.2">0.34 s <tspan class="grp">Bare metal / native-compiled</tspan></text>
</g>
<g class="row">

<text class="lbl" x="262" y="549.2" text-anchor="end">Caspien loop f64 · full</text>
<rect class="bar k-caspien" x="270" y="537" width="30.5" height="17" rx="3"/>
<line class="noise" x1="299.6" x2="299.6" y1="537" y2="554"/>
<line class="noise" x1="301.4" x2="301.4" y1="537" y2="554"/>
<text class="val" x="307.4" y="549.2">0.35 s <tspan class="grp">Caspien</tspan></text>
</g>
<g class="row">

<text class="lbl" x="262" y="572.2" text-anchor="end">OCaml</text>
<rect class="bar k-ocaml" x="270" y="560" width="30.5" height="17" rx="3"/>
<line class="noise" x1="299.7" x2="299.7" y1="560" y2="577"/>
<line class="noise" x1="301.3" x2="301.3" y1="560" y2="577"/>
<text class="val" x="307.3" y="572.2">0.35 s <tspan class="grp">Bare metal / native-compiled</tspan></text>
</g>
<g class="row">

<text class="lbl" x="262" y="595.2" text-anchor="end">Caspien scalars f32 · full</text>
<rect class="bar k-caspien" x="270" y="583" width="31.1" height="17" rx="3"/>
<line class="noise" x1="300.6" x2="300.6" y1="583" y2="600"/>
<line class="noise" x1="301.5" x2="301.5" y1="583" y2="600"/>
<text class="val" x="307.5" y="595.2">0.35 s <tspan class="grp">Caspien</tspan></text>
</g>
<g class="row">

<text class="lbl" x="262" y="618.2" text-anchor="end">Caspien plain f32 · full</text>
<rect class="bar k-caspien" x="270" y="606" width="31.2" height="17" rx="3"/>
<line class="noise" x1="299.0" x2="299.0" y1="606" y2="623"/>
<line class="noise" x1="303.4" x2="303.4" y1="606" y2="623"/>
<text class="val" x="309.4" y="618.2">0.35 s <tspan class="grp">Caspien</tspan></text>
</g>
<g class="row">

<text class="lbl" x="262" y="641.2" text-anchor="end">Java</text>
<rect class="bar k-java" x="270" y="629" width="34.3" height="17" rx="3"/>
<line class="noise" x1="303.3" x2="303.3" y1="629" y2="646"/>
<line class="noise" x1="305.2" x2="305.2" y1="629" y2="646"/>
<text class="val" x="311.2" y="641.2">0.39 s <tspan class="grp">Compiled + interpreted (VM)</tspan></text>
</g>
<g class="row">

<text class="lbl" x="262" y="664.2" text-anchor="end">Caspien natural f64 · full</text>
<rect class="bar k-caspien" x="270" y="652" width="34.8" height="17" rx="3"/>
<line class="noise" x1="304.5" x2="304.5" y1="652" y2="669"/>
<line class="noise" x1="305.2" x2="305.2" y1="652" y2="669"/>
<text class="val" x="311.2" y="664.2">0.40 s <tspan class="grp">Caspien</tspan></text>
</g>
<g class="row">

<text class="lbl" x="262" y="687.2" text-anchor="end">Kotlin</text>
<rect class="bar k-kotlin" x="270" y="675" width="35.3" height="17" rx="3"/>
<line class="noise" x1="305.1" x2="305.1" y1="675" y2="692"/>
<line class="noise" x1="305.6" x2="305.6" y1="675" y2="692"/>
<text class="val" x="311.6" y="687.2">0.40 s <tspan class="grp">Compiled + interpreted (VM)</tspan></text>
</g>
<g class="row">

<text class="lbl" x="262" y="710.2" text-anchor="end">Go</text>
<rect class="bar k-go" x="270" y="698" width="41.5" height="17" rx="3"/>
<line class="noise" x1="310.8" x2="310.8" y1="698" y2="715"/>
<line class="noise" x1="312.2" x2="312.2" y1="698" y2="715"/>
<text class="val" x="318.2" y="710.2">0.47 s <tspan class="grp">Bare metal / native-compiled</tspan></text>
</g>
<g class="row">

<text class="lbl" x="262" y="733.2" text-anchor="end">C#</text>
<rect class="bar k-csharp" x="270" y="721" width="42.5" height="17" rx="3"/>
<line class="noise" x1="310.6" x2="310.6" y1="721" y2="738"/>
<line class="noise" x1="314.3" x2="314.3" y1="721" y2="738"/>
<text class="val" x="320.3" y="733.2">0.48 s <tspan class="grp">Compiled + interpreted (VM)</tspan></text>
</g>
<g class="row">

<text class="lbl" x="262" y="756.2" text-anchor="end">Node</text>
<rect class="bar k-node" x="270" y="744" width="46.5" height="17" rx="3"/>
<line class="noise" x1="316.0" x2="316.0" y1="744" y2="761"/>
<line class="noise" x1="317.0" x2="317.0" y1="744" y2="761"/>
<text class="val" x="323.0" y="756.2">0.53 s <tspan class="grp">Interpreted</tspan></text>
</g>
<g class="row">

<text class="lbl" x="262" y="779.2" text-anchor="end">Bun</text>
<rect class="bar k-bun" x="270" y="767" width="55.8" height="17" rx="3"/>
<line class="noise" x1="324.6" x2="324.6" y1="767" y2="784"/>
<line class="noise" x1="327.0" x2="327.0" y1="767" y2="784"/>
<text class="val" x="333.0" y="779.2">0.63 s <tspan class="grp">Interpreted</tspan></text>
</g>
<g class="row">

<text class="lbl" x="262" y="802.2" text-anchor="end">LuaJIT</text>
<rect class="bar k-luajit" x="270" y="790" width="101.7" height="17" rx="3"/>
<line class="noise" x1="370.0" x2="370.0" y1="790" y2="807"/>
<line class="noise" x1="373.5" x2="373.5" y1="790" y2="807"/>
<text class="val" x="379.5" y="802.2">1.16 s <tspan class="grp">Interpreted</tspan></text>
</g>
<g class="row">

<text class="lbl" x="262" y="825.2" text-anchor="end">C f32 -O0</text>
<rect class="bar k-c" x="270" y="813" width="107.7" height="17" rx="3"/>
<line class="noise" x1="374.9" x2="374.9" y1="813" y2="830"/>
<line class="noise" x1="380.4" x2="380.4" y1="813" y2="830"/>
<text class="val" x="386.4" y="825.2">1.22 s <tspan class="grp">Bare metal / native-compiled</tspan></text>
</g>
<g class="row">

<text class="lbl" x="262" y="848.2" text-anchor="end">C -O0</text>
<rect class="bar k-c" x="270" y="836" width="111.8" height="17" rx="3"/>
<line class="noise" x1="378.7" x2="378.7" y1="836" y2="853"/>
<line class="noise" x1="384.9" x2="384.9" y1="836" y2="853"/>
<text class="val" x="390.9" y="848.2">1.27 s <tspan class="grp">Bare metal / native-compiled</tspan></text>
</g>
<g class="row">

<text class="lbl" x="262" y="871.2" text-anchor="end">Caspien scalars f32 · off</text>
<rect class="bar k-caspien off" x="270" y="859" width="138.7" height="17" rx="3"/>
<line class="noise" x1="406.0" x2="406.0" y1="859" y2="876"/>
<line class="noise" x1="411.5" x2="411.5" y1="859" y2="876"/>
<text class="val" x="417.5" y="871.2">1.58 s <tspan class="grp">Caspien</tspan></text>
</g>
<g class="row">

<text class="lbl" x="262" y="894.2" text-anchor="end">Caspien scalars f64 · off</text>
<rect class="bar k-caspien off" x="270" y="882" width="139.9" height="17" rx="3"/>
<line class="noise" x1="401.9" x2="401.9" y1="882" y2="899"/>
<line class="noise" x1="417.9" x2="417.9" y1="882" y2="899"/>
<text class="val" x="423.9" y="894.2">1.59 s <tspan class="grp">Caspien</tspan></text>
</g>
<g class="row">

<text class="lbl" x="262" y="917.2" text-anchor="end">Caspien plain f32 · off</text>
<rect class="bar k-caspien off" x="270" y="905" width="248.1" height="17" rx="3"/>
<line class="noise" x1="508.8" x2="508.8" y1="905" y2="922"/>
<line class="noise" x1="527.3" x2="527.3" y1="905" y2="922"/>
<text class="val" x="533.3" y="917.2">2.82 s <tspan class="grp">Caspien</tspan></text>
</g>
<g class="row">

<text class="lbl" x="262" y="940.2" text-anchor="end">Caspien plain f64 · off</text>
<rect class="bar k-caspien off" x="270" y="928" width="249.3" height="17" rx="3"/>
<line class="noise" x1="514.0" x2="514.0" y1="928" y2="945"/>
<line class="noise" x1="524.5" x2="524.5" y1="928" y2="945"/>
<text class="val" x="530.5" y="940.2">2.83 s <tspan class="grp">Caspien</tspan></text>
</g>
<g class="row">

<text class="lbl" x="262" y="963.2" text-anchor="end">Caspien arr f32 · off</text>
<rect class="bar k-caspien off" x="270" y="951" width="263.5" height="17" rx="3"/>
<line class="noise" x1="522.7" x2="522.7" y1="951" y2="968"/>
<line class="noise" x1="544.4" x2="544.4" y1="951" y2="968"/>
<text class="val" x="550.4" y="963.2">2.99 s <tspan class="grp">Caspien</tspan></text>
</g>
<g class="row">

<text class="lbl" x="262" y="986.2" text-anchor="end">Caspien natural f64 · off</text>
<rect class="bar k-caspien off" x="270" y="974" width="278.6" height="17" rx="3"/>
<line class="noise" x1="542.7" x2="542.7" y1="974" y2="991"/>
<line class="noise" x1="554.4" x2="554.4" y1="974" y2="991"/>
<text class="val" x="560.4" y="986.2">3.17 s <tspan class="grp">Caspien</tspan></text>
</g>
<g class="row">

<text class="lbl" x="262" y="1009.2" text-anchor="end">Caspien loop f32 · off</text>
<rect class="bar k-caspien off" x="270" y="997" width="286.4" height="17" rx="3"/>
<line class="noise" x1="544.2" x2="544.2" y1="997" y2="1014"/>
<line class="noise" x1="568.5" x2="568.5" y1="997" y2="1014"/>
<text class="val" x="574.5" y="1009.2">3.25 s <tspan class="grp">Caspien</tspan></text>
</g>
<g class="row">

<text class="lbl" x="262" y="1032.2" text-anchor="end">Caspien arr f64 · off</text>
<rect class="bar k-caspien off" x="270" y="1020" width="288.9" height="17" rx="3"/>
<line class="noise" x1="554.1" x2="554.1" y1="1020" y2="1037"/>
<line class="noise" x1="563.7" x2="563.7" y1="1020" y2="1037"/>
<text class="val" x="569.7" y="1032.2">3.28 s <tspan class="grp">Caspien</tspan></text>
</g>
<g class="row">

<text class="lbl" x="262" y="1055.2" text-anchor="end">Caspien loop f64 · off</text>
<rect class="bar k-caspien off" x="270" y="1043" width="304.1" height="17" rx="3"/>
<line class="noise" x1="564.8" x2="564.8" y1="1043" y2="1060"/>
<line class="noise" x1="583.5" x2="583.5" y1="1043" y2="1060"/>
<text class="val" x="589.5" y="1055.2">3.46 s <tspan class="grp">Caspien</tspan></text>
</g>
<g class="row">

<text class="lbl" x="262" y="1078.2" text-anchor="end">Caspien aos_safe f64 · off</text>
<rect class="bar k-caspien off" x="270" y="1066" width="394.5" height="17" rx="3"/>
<line class="noise" x1="651.7" x2="651.7" y1="1066" y2="1083"/>
<line class="noise" x1="677.2" x2="677.2" y1="1066" y2="1083"/>
<text class="val" x="683.2" y="1078.2">4.48 s <tspan class="grp">Caspien</tspan></text>
</g>
<g class="row">

<text class="lbl" x="262" y="1101.2" text-anchor="end">Caspien aos_unsafe f64 · off</text>
<rect class="bar k-caspien off" x="270" y="1089" width="402.1" height="17" rx="3"/>
<line class="noise" x1="667.5" x2="667.5" y1="1089" y2="1106"/>
<line class="noise" x1="676.6" x2="676.6" y1="1089" y2="1106"/>
<text class="val" x="682.6" y="1101.2">4.57 s <tspan class="grp">Caspien</tspan></text>
</g>
</g><text class="sub" x="16" y="1202">Green = Caspien (hatched = optimisations off), red = native, purple = JVM/.NET/Wasm, blue = interpreted.</text><text class="sub" x="16" y="1216">Gold lines: best time -/+ typical run-to-run noise (median repeat minus best).</text></svg>
