<svg xmlns="http://www.w3.org/2000/svg" viewBox="0 0 900 1021" width="900" height="1021" font-family="-apple-system,Segoe UI,Helvetica,Arial,sans-serif"><style>.grid{stroke:#dfe3dc;stroke-width:1}.noise{stroke:#e0a800;stroke-width:1.6}.tick{fill:#5d665f;font-size:11px}.lbl{fill:#1d2320;font-size:12.5px}.val{fill:#1d2320;font-size:12px}.grp{fill:#5d665f;font-size:10.5px}.hit{fill:transparent}.bar{fill:var(--c)}.bar.off{fill:url(#hatch);stroke:var(--c);stroke-width:1.2}.ttl{fill:#1d2320;font-size:15px;font-weight:600}.sub{fill:#5d665f;font-size:11.5px}.k-caspien{--c:#2e9e5b}.k-c{--c:#d9453d}.k-cpp{--c:#ef7a6e}.k-rust{--c:#a82a24}.k-go{--c:#f2a39a}.k-fortran{--c:#7d1f1a}.k-objc{--c:#bd5e55}.k-odin{--c:#e8745d}.k-zig{--c:#c94a6a}.k-chapel{--c:#f5b8ae}.k-ldc{--c:#e0523f}.k-gdc{--c:#f08a7a}.k-nim{--c:#b8322c}.k-crystal{--c:#d86a5a}.k-ocaml{--c:#f7c4bb}.k-swift{--c:#ca3a52}.k-codon{--c:#96302a}.k-java{--c:#7a3fb8}.k-csharp{--c:#5f45c8}.k-kotlin{--c:#b06ad8}.k-wasm{--c:#9a7ee0}.k-node{--c:#2f6fd6}.k-bun{--c:#7fb0f2}.k-luajit{--c:#1d4aa8}</style><defs><pattern id="hatch" width="6" height="6" patternUnits="userSpaceOnUse" patternTransform="rotate(45)"><rect width="6" height="6" fill="#cfe9d9"/><line x1="0" y1="0" x2="0" y2="6" stroke="#2e9e5b" stroke-width="2.4"/></pattern></defs><rect width="900" height="1021" rx="8" fill="#ffffff" stroke="#d2d8cf"/><text class="ttl" x="16" y="24">Execution time: Binary trees</text><text class="sub" x="16" y="40">depth 17  |  fastest of 5 runs, Linux 2-core VM; every output equals the C reference</text><g transform="translate(0,46)">
<line class="grid" x1="270.0" x2="270.0" y1="6" y2="909"/>
<text class="tick" x="270.0" y="923" text-anchor="middle">0</text>
<line class="grid" x1="358.0" x2="358.0" y1="6" y2="909"/>
<text class="tick" x="358.0" y="923" text-anchor="middle">2.5</text>
<line class="grid" x1="446.0" x2="446.0" y1="6" y2="909"/>
<text class="tick" x="446.0" y="923" text-anchor="middle">5</text>
<line class="grid" x1="534.0" x2="534.0" y1="6" y2="909"/>
<text class="tick" x="534.0" y="923" text-anchor="middle">7.5</text>
<line class="grid" x1="622.0" x2="622.0" y1="6" y2="909"/>
<text class="tick" x="622.0" y="923" text-anchor="middle">10</text>
<line class="grid" x1="710.0" x2="710.0" y1="6" y2="909"/>
<text class="tick" x="710.0" y="923" text-anchor="middle">12.5</text>
<g class="row">

<text class="lbl" x="262" y="20.2" text-anchor="end">OCaml</text>
<rect class="bar k-ocaml" x="270" y="8" width="7.2" height="17" rx="3"/>
<line class="noise" x1="277.1" x2="277.1" y1="8" y2="25"/>
<line class="noise" x1="277.4" x2="277.4" y1="8" y2="25"/>
<text class="val" x="283.4" y="20.2">0.20 s <tspan class="grp">Bare metal / native-compiled</tspan></text>
</g>
<g class="row">

<text class="lbl" x="262" y="43.2" text-anchor="end">Caspien optimized unsafe · full</text>
<rect class="bar k-caspien" x="270" y="31" width="9.2" height="17" rx="3"/>
<line class="noise" x1="278.8" x2="278.8" y1="31" y2="48"/>
<line class="noise" x1="279.6" x2="279.6" y1="31" y2="48"/>
<text class="val" x="285.6" y="43.2">0.26 s <tspan class="grp">Caspien</tspan></text>
</g>
<g class="row">

<text class="lbl" x="262" y="66.2" text-anchor="end">Caspien optimized safe · full</text>
<rect class="bar k-caspien" x="270" y="54" width="11.6" height="17" rx="3"/>
<line class="noise" x1="280.3" x2="280.3" y1="54" y2="71"/>
<line class="noise" x1="282.8" x2="282.8" y1="54" y2="71"/>
<text class="val" x="288.8" y="66.2">0.33 s <tspan class="grp">Caspien</tspan></text>
</g>
<g class="row">

<text class="lbl" x="262" y="89.2" text-anchor="end">Java</text>
<rect class="bar k-java" x="270" y="77" width="14.5" height="17" rx="3"/>
<line class="noise" x1="284.1" x2="284.1" y1="77" y2="94"/>
<line class="noise" x1="284.9" x2="284.9" y1="77" y2="94"/>
<text class="val" x="290.9" y="89.2">0.41 s <tspan class="grp">Compiled + interpreted (VM)</tspan></text>
</g>
<g class="row">

<text class="lbl" x="262" y="112.2" text-anchor="end">Kotlin</text>
<rect class="bar k-kotlin" x="270" y="100" width="14.9" height="17" rx="3"/>
<line class="noise" x1="284.7" x2="284.7" y1="100" y2="117"/>
<line class="noise" x1="285.2" x2="285.2" y1="100" y2="117"/>
<text class="val" x="291.2" y="112.2">0.42 s <tspan class="grp">Compiled + interpreted (VM)</tspan></text>
</g>
<g class="row">

<text class="lbl" x="262" y="135.2" text-anchor="end">Bun</text>
<rect class="bar k-bun" x="270" y="123" width="16.3" height="17" rx="3"/>
<line class="noise" x1="285.9" x2="285.9" y1="123" y2="140"/>
<line class="noise" x1="286.7" x2="286.7" y1="123" y2="140"/>
<text class="val" x="292.7" y="135.2">0.46 s <tspan class="grp">Interpreted</tspan></text>
</g>
<g class="row">

<text class="lbl" x="262" y="158.2" text-anchor="end">C -O2 (free)</text>
<rect class="bar k-c" x="270" y="146" width="17.0" height="17" rx="3"/>
<line class="noise" x1="286.5" x2="286.5" y1="146" y2="163"/>
<line class="noise" x1="287.5" x2="287.5" y1="146" y2="163"/>
<text class="val" x="293.5" y="158.2">0.48 s <tspan class="grp">Bare metal / native-compiled</tspan></text>
</g>
<g class="row">

<text class="lbl" x="262" y="181.2" text-anchor="end">C++ -O2 (free)</text>
<rect class="bar k-cpp" x="270" y="169" width="17.9" height="17" rx="3"/>
<line class="noise" x1="287.7" x2="287.7" y1="169" y2="186"/>
<line class="noise" x1="288.2" x2="288.2" y1="169" y2="186"/>
<text class="val" x="294.2" y="181.2">0.51 s <tspan class="grp">Bare metal / native-compiled</tspan></text>
</g>
<g class="row">

<text class="lbl" x="262" y="204.2" text-anchor="end">Fortran</text>
<rect class="bar k-fortran" x="270" y="192" width="19.3" height="17" rx="3"/>
<line class="noise" x1="289.1" x2="289.1" y1="192" y2="209"/>
<line class="noise" x1="289.5" x2="289.5" y1="192" y2="209"/>
<text class="val" x="295.5" y="204.2">0.55 s <tspan class="grp">Bare metal / native-compiled</tspan></text>
</g>
<g class="row">

<text class="lbl" x="262" y="227.2" text-anchor="end">Node</text>
<rect class="bar k-node" x="270" y="215" width="19.3" height="17" rx="3"/>
<line class="noise" x1="288.6" x2="288.6" y1="215" y2="232"/>
<line class="noise" x1="289.9" x2="289.9" y1="215" y2="232"/>
<text class="val" x="295.9" y="227.2">0.55 s <tspan class="grp">Interpreted</tspan></text>
</g>
<g class="row">

<text class="lbl" x="262" y="250.2" text-anchor="end">WebAssembly</text>
<rect class="bar k-wasm" x="270" y="238" width="20.5" height="17" rx="3"/>
<line class="noise" x1="290.3" x2="290.3" y1="238" y2="255"/>
<line class="noise" x1="290.6" x2="290.6" y1="238" y2="255"/>
<text class="val" x="296.6" y="250.2">0.58 s <tspan class="grp">Compiled + interpreted (VM)</tspan></text>
</g>
<g class="row">

<text class="lbl" x="262" y="273.2" text-anchor="end">C#</text>
<rect class="bar k-csharp" x="270" y="261" width="21.8" height="17" rx="3"/>
<line class="noise" x1="291.3" x2="291.3" y1="261" y2="278"/>
<line class="noise" x1="292.4" x2="292.4" y1="261" y2="278"/>
<text class="val" x="298.4" y="273.2">0.62 s <tspan class="grp">Compiled + interpreted (VM)</tspan></text>
</g>
<g class="row">

<text class="lbl" x="262" y="296.2" text-anchor="end">C -O0</text>
<rect class="bar k-c" x="270" y="284" width="22.1" height="17" rx="3"/>
<line class="noise" x1="291.6" x2="291.6" y1="284" y2="301"/>
<line class="noise" x1="292.7" x2="292.7" y1="284" y2="301"/>
<text class="val" x="298.7" y="296.2">0.63 s <tspan class="grp">Bare metal / native-compiled</tspan></text>
</g>
<g class="row">

<text class="lbl" x="262" y="319.2" text-anchor="end">Rust -O (free)</text>
<rect class="bar k-rust" x="270" y="307" width="22.6" height="17" rx="3"/>
<line class="noise" x1="291.5" x2="291.5" y1="307" y2="324"/>
<line class="noise" x1="293.7" x2="293.7" y1="307" y2="324"/>
<text class="val" x="299.7" y="319.2">0.64 s <tspan class="grp">Bare metal / native-compiled</tspan></text>
</g>
<g class="row">

<text class="lbl" x="262" y="342.2" text-anchor="end">Zig</text>
<rect class="bar k-zig" x="270" y="330" width="24.3" height="17" rx="3"/>
<line class="noise" x1="294.0" x2="294.0" y1="330" y2="347"/>
<line class="noise" x1="294.6" x2="294.6" y1="330" y2="347"/>
<text class="val" x="300.6" y="342.2">0.69 s <tspan class="grp">Bare metal / native-compiled</tspan></text>
</g>
<g class="row">

<text class="lbl" x="262" y="365.2" text-anchor="end">Nim</text>
<rect class="bar k-nim" x="270" y="353" width="27.3" height="17" rx="3"/>
<line class="noise" x1="296.4" x2="296.4" y1="353" y2="370"/>
<line class="noise" x1="298.3" x2="298.3" y1="353" y2="370"/>
<text class="val" x="304.3" y="365.2">0.78 s <tspan class="grp">Bare metal / native-compiled</tspan></text>
</g>
<g class="row">

<text class="lbl" x="262" y="388.2" text-anchor="end">Chapel</text>
<rect class="bar k-chapel" x="270" y="376" width="27.4" height="17" rx="3"/>
<line class="noise" x1="296.9" x2="296.9" y1="376" y2="393"/>
<line class="noise" x1="298.0" x2="298.0" y1="376" y2="393"/>
<text class="val" x="304.0" y="388.2">0.78 s <tspan class="grp">Bare metal / native-compiled</tspan></text>
</g>
<g class="row">

<text class="lbl" x="262" y="411.2" text-anchor="end">Codon</text>
<rect class="bar k-codon" x="270" y="399" width="28.7" height="17" rx="3"/>
<line class="noise" x1="296.7" x2="296.7" y1="399" y2="416"/>
<line class="noise" x1="300.8" x2="300.8" y1="399" y2="416"/>
<text class="val" x="306.8" y="411.2">0.82 s <tspan class="grp">Bare metal / native-compiled</tspan></text>
</g>
<g class="row">

<text class="lbl" x="262" y="434.2" text-anchor="end">Crystal</text>
<rect class="bar k-crystal" x="270" y="422" width="31.9" height="17" rx="3"/>
<line class="noise" x1="300.8" x2="300.8" y1="422" y2="439"/>
<line class="noise" x1="303.0" x2="303.0" y1="422" y2="439"/>
<text class="val" x="309.0" y="434.2">0.91 s <tspan class="grp">Bare metal / native-compiled</tspan></text>
</g>
<g class="row">

<text class="lbl" x="262" y="457.2" text-anchor="end">Odin</text>
<rect class="bar k-odin" x="270" y="445" width="32.9" height="17" rx="3"/>
<line class="noise" x1="302.3" x2="302.3" y1="445" y2="462"/>
<line class="noise" x1="303.4" x2="303.4" y1="445" y2="462"/>
<text class="val" x="309.4" y="457.2">0.93 s <tspan class="grp">Bare metal / native-compiled</tspan></text>
</g>
<g class="row">

<text class="lbl" x="262" y="480.2" text-anchor="end">C++ -O2 (leak)</text>
<rect class="bar k-cpp" x="270" y="468" width="33.1" height="17" rx="3"/>
<line class="noise" x1="299.8" x2="299.8" y1="468" y2="485"/>
<line class="noise" x1="306.4" x2="306.4" y1="468" y2="485"/>
<text class="val" x="312.4" y="480.2">0.94 s <tspan class="grp">Bare metal / native-compiled</tspan></text>
</g>
<g class="row">

<text class="lbl" x="262" y="503.2" text-anchor="end">C -O2 (leak)</text>
<rect class="bar k-c" x="270" y="491" width="33.2" height="17" rx="3"/>
<line class="noise" x1="301.8" x2="301.8" y1="491" y2="508"/>
<line class="noise" x1="304.6" x2="304.6" y1="491" y2="508"/>
<text class="val" x="310.6" y="503.2">0.94 s <tspan class="grp">Bare metal / native-compiled</tspan></text>
</g>
<g class="row">

<text class="lbl" x="262" y="526.2" text-anchor="end">Rust -O (leak)</text>
<rect class="bar k-rust" x="270" y="514" width="39.0" height="17" rx="3"/>
<line class="noise" x1="307.7" x2="307.7" y1="514" y2="531"/>
<line class="noise" x1="310.2" x2="310.2" y1="514" y2="531"/>
<text class="val" x="316.2" y="526.2">1.11 s <tspan class="grp">Bare metal / native-compiled</tspan></text>
</g>
<g class="row">

<text class="lbl" x="262" y="549.2" text-anchor="end">Caspien optimized unsafe · off</text>
<rect class="bar k-caspien off" x="270" y="537" width="41.5" height="17" rx="3"/>
<line class="noise" x1="309.3" x2="309.3" y1="537" y2="554"/>
<line class="noise" x1="313.7" x2="313.7" y1="537" y2="554"/>
<text class="val" x="319.7" y="549.2">1.18 s <tspan class="grp">Caspien</tspan></text>
</g>
<g class="row">

<text class="lbl" x="262" y="572.2" text-anchor="end">D (LDC)</text>
<rect class="bar k-ldc" x="270" y="560" width="41.6" height="17" rx="3"/>
<line class="noise" x1="310.4" x2="310.4" y1="560" y2="577"/>
<line class="noise" x1="312.8" x2="312.8" y1="560" y2="577"/>
<text class="val" x="318.8" y="572.2">1.18 s <tspan class="grp">Bare metal / native-compiled</tspan></text>
</g>
<g class="row">

<text class="lbl" x="262" y="595.2" text-anchor="end">Swift</text>
<rect class="bar k-swift" x="270" y="583" width="45.0" height="17" rx="3"/>
<line class="noise" x1="313.7" x2="313.7" y1="583" y2="600"/>
<line class="noise" x1="316.4" x2="316.4" y1="583" y2="600"/>
<text class="val" x="322.4" y="595.2">1.28 s <tspan class="grp">Bare metal / native-compiled</tspan></text>
</g>
<g class="row">

<text class="lbl" x="262" y="618.2" text-anchor="end">Caspien naive (DynamicArray) · full</text>
<rect class="bar k-caspien" x="270" y="606" width="46.6" height="17" rx="3"/>
<line class="noise" x1="314.6" x2="314.6" y1="606" y2="623"/>
<line class="noise" x1="318.6" x2="318.6" y1="606" y2="623"/>
<text class="val" x="324.6" y="618.2">1.32 s <tspan class="grp">Caspien</tspan></text>
</g>
<g class="row">

<text class="lbl" x="262" y="641.2" text-anchor="end">Go</text>
<rect class="bar k-go" x="270" y="629" width="46.8" height="17" rx="3"/>
<line class="noise" x1="316.1" x2="316.1" y1="629" y2="646"/>
<line class="noise" x1="317.5" x2="317.5" y1="629" y2="646"/>
<text class="val" x="323.5" y="641.2">1.33 s <tspan class="grp">Bare metal / native-compiled</tspan></text>
</g>
<g class="row">

<text class="lbl" x="262" y="664.2" text-anchor="end">Caspien optimized safe · off</text>
<rect class="bar k-caspien off" x="270" y="652" width="54.4" height="17" rx="3"/>
<line class="noise" x1="324.1" x2="324.1" y1="652" y2="669"/>
<line class="noise" x1="324.7" x2="324.7" y1="652" y2="669"/>
<text class="val" x="330.7" y="664.2">1.55 s <tspan class="grp">Caspien</tspan></text>
</g>
<g class="row">

<text class="lbl" x="262" y="687.2" text-anchor="end">D (GDC)</text>
<rect class="bar k-gdc" x="270" y="675" width="60.9" height="17" rx="3"/>
<line class="noise" x1="330.5" x2="330.5" y1="675" y2="692"/>
<line class="noise" x1="331.2" x2="331.2" y1="675" y2="692"/>
<text class="val" x="337.2" y="687.2">1.73 s <tspan class="grp">Bare metal / native-compiled</tspan></text>
</g>
<g class="row">

<text class="lbl" x="262" y="710.2" text-anchor="end">Objective-C</text>
<rect class="bar k-objc" x="270" y="698" width="71.8" height="17" rx="3"/>
<line class="noise" x1="338.1" x2="338.1" y1="698" y2="715"/>
<line class="noise" x1="345.5" x2="345.5" y1="698" y2="715"/>
<text class="val" x="351.5" y="710.2">2.04 s <tspan class="grp">Bare metal / native-compiled</tspan></text>
</g>
<g class="row">

<text class="lbl" x="262" y="733.2" text-anchor="end">LuaJIT</text>
<rect class="bar k-luajit" x="270" y="721" width="113.5" height="17" rx="3"/>
<line class="noise" x1="353.4" x2="353.4" y1="721" y2="738"/>
<line class="noise" x1="413.7" x2="413.7" y1="721" y2="738"/>
<text class="val" x="419.7" y="733.2">3.23 s <tspan class="grp">Interpreted</tspan></text>
</g>
<g class="row">

<text class="lbl" x="262" y="756.2" text-anchor="end">Caspien naive (DynamicArray) · off</text>
<rect class="bar k-caspien off" x="270" y="744" width="113.8" height="17" rx="3"/>
<line class="noise" x1="382.6" x2="382.6" y1="744" y2="761"/>
<line class="noise" x1="385.1" x2="385.1" y1="744" y2="761"/>
<text class="val" x="391.1" y="756.2">3.23 s <tspan class="grp">Caspien</tspan></text>
</g>
<g class="row">

<text class="lbl" x="262" y="779.2" text-anchor="end">Caspien ref safe · full</text>
<rect class="bar k-caspien" x="270" y="767" width="136.1" height="17" rx="3"/>
<line class="noise" x1="404.0" x2="404.0" y1="767" y2="784"/>
<line class="noise" x1="408.2" x2="408.2" y1="767" y2="784"/>
<text class="val" x="414.2" y="779.2">3.87 s <tspan class="grp">Caspien</tspan></text>
</g>
<g class="row">

<text class="lbl" x="262" y="802.2" text-anchor="end">Caspien ref unsafe · full</text>
<rect class="bar k-caspien" x="270" y="790" width="136.6" height="17" rx="3"/>
<line class="noise" x1="403.8" x2="403.8" y1="790" y2="807"/>
<line class="noise" x1="409.4" x2="409.4" y1="790" y2="807"/>
<text class="val" x="415.4" y="802.2">3.88 s <tspan class="grp">Caspien</tspan></text>
</g>
<g class="row">

<text class="lbl" x="262" y="825.2" text-anchor="end">Caspien ref naive · full</text>
<rect class="bar k-caspien" x="270" y="813" width="151.6" height="17" rx="3"/>
<line class="noise" x1="416.1" x2="416.1" y1="813" y2="830"/>
<line class="noise" x1="427.2" x2="427.2" y1="813" y2="830"/>
<text class="val" x="433.2" y="825.2">4.31 s <tspan class="grp">Caspien</tspan></text>
</g>
<g class="row">

<text class="lbl" x="262" y="848.2" text-anchor="end">Caspien ref unsafe · off</text>
<rect class="bar k-caspien off" x="270" y="836" width="341.4" height="17" rx="3"/>
<line class="noise" x1="600.0" x2="600.0" y1="836" y2="853"/>
<line class="noise" x1="622.8" x2="622.8" y1="836" y2="853"/>
<text class="val" x="628.8" y="848.2">9.70 s <tspan class="grp">Caspien</tspan></text>
</g>
<g class="row">

<text class="lbl" x="262" y="871.2" text-anchor="end">Caspien ref safe · off</text>
<rect class="bar k-caspien off" x="270" y="859" width="350.2" height="17" rx="3"/>
<line class="noise" x1="613.4" x2="613.4" y1="859" y2="876"/>
<line class="noise" x1="627.0" x2="627.0" y1="859" y2="876"/>
<text class="val" x="633.0" y="871.2">9.95 s <tspan class="grp">Caspien</tspan></text>
</g>
<g class="row">

<text class="lbl" x="262" y="894.2" text-anchor="end">Caspien ref naive · off</text>
<rect class="bar k-caspien off" x="270" y="882" width="406.6" height="17" rx="3"/>
<line class="noise" x1="671.4" x2="671.4" y1="882" y2="899"/>
<line class="noise" x1="681.7" x2="681.7" y1="882" y2="899"/>
<text class="val" x="687.7" y="894.2">11.55 s <tspan class="grp">Caspien</tspan></text>
</g>
</g><text class="sub" x="16" y="995">Green = Caspien (hatched = optimisations off), red = native, purple = JVM/.NET/Wasm, blue = interpreted.</text><text class="sub" x="16" y="1009">Gold lines: best time -/+ typical run-to-run noise (median repeat minus best).</text></svg>
