<svg xmlns="http://www.w3.org/2000/svg" viewBox="0 0 900 1067" width="900" height="1067" font-family="-apple-system,Segoe UI,Helvetica,Arial,sans-serif"><style>.grid{stroke:#dfe3dc;stroke-width:1}.noise{stroke:#e0a800;stroke-width:1.6}.tick{fill:#5d665f;font-size:11px}.lbl{fill:#1d2320;font-size:12.5px}.val{fill:#1d2320;font-size:12px}.grp{fill:#5d665f;font-size:10.5px}.hit{fill:transparent}.bar{fill:var(--c)}.bar.off{fill:url(#hatch);stroke:var(--c);stroke-width:1.2}.ttl{fill:#1d2320;font-size:15px;font-weight:600}.sub{fill:#5d665f;font-size:11.5px}.k-caspien{--c:#2e9e5b}.k-c{--c:#d9453d}.k-cpp{--c:#ef7a6e}.k-rust{--c:#a82a24}.k-go{--c:#f2a39a}.k-fortran{--c:#7d1f1a}.k-objc{--c:#bd5e55}.k-odin{--c:#e8745d}.k-zig{--c:#c94a6a}.k-chapel{--c:#f5b8ae}.k-ldc{--c:#e0523f}.k-gdc{--c:#f08a7a}.k-nim{--c:#b8322c}.k-crystal{--c:#d86a5a}.k-ocaml{--c:#f7c4bb}.k-swift{--c:#ca3a52}.k-codon{--c:#96302a}.k-java{--c:#7a3fb8}.k-csharp{--c:#5f45c8}.k-kotlin{--c:#b06ad8}.k-wasm{--c:#9a7ee0}.k-node{--c:#2f6fd6}.k-bun{--c:#7fb0f2}.k-luajit{--c:#1d4aa8}</style><defs><pattern id="hatch" width="6" height="6" patternUnits="userSpaceOnUse" patternTransform="rotate(45)"><rect width="6" height="6" fill="#cfe9d9"/><line x1="0" y1="0" x2="0" y2="6" stroke="#2e9e5b" stroke-width="2.4"/></pattern></defs><rect width="900" height="1067" rx="8" fill="#ffffff" stroke="#d2d8cf"/><text class="ttl" x="16" y="24">Execution time: LRU cache</text><text class="sub" x="16" y="40">20,000,000 operations  |  fastest of 5 runs, Linux 2-core VM; every output equals the C reference</text><g transform="translate(0,46)">
<line class="grid" x1="270.0" x2="270.0" y1="6" y2="955"/>
<text class="tick" x="270.0" y="969" text-anchor="middle">0</text>
<line class="grid" x1="380.0" x2="380.0" y1="6" y2="955"/>
<text class="tick" x="380.0" y="969" text-anchor="middle">5</text>
<line class="grid" x1="490.0" x2="490.0" y1="6" y2="955"/>
<text class="tick" x="490.0" y="969" text-anchor="middle">10</text>
<line class="grid" x1="600.0" x2="600.0" y1="6" y2="955"/>
<text class="tick" x="600.0" y="969" text-anchor="middle">15</text>
<line class="grid" x1="710.0" x2="710.0" y1="6" y2="955"/>
<text class="tick" x="710.0" y="969" text-anchor="middle">20</text>
<g class="row">

<text class="lbl" x="262" y="20.2" text-anchor="end">Zig</text>
<rect class="bar k-zig" x="270" y="8" width="11.4" height="17" rx="3"/>
<line class="noise" x1="281.1" x2="281.1" y1="8" y2="25"/>
<line class="noise" x1="281.6" x2="281.6" y1="8" y2="25"/>
<text class="val" x="287.6" y="20.2">0.52 s <tspan class="grp">Bare metal / native-compiled</tspan></text>
</g>
<g class="row">

<text class="lbl" x="262" y="43.2" text-anchor="end">Rust -O (leak)</text>
<rect class="bar k-rust" x="270" y="31" width="12.1" height="17" rx="3"/>
<line class="noise" x1="281.7" x2="281.7" y1="31" y2="48"/>
<line class="noise" x1="282.5" x2="282.5" y1="31" y2="48"/>
<text class="val" x="288.5" y="43.2">0.55 s <tspan class="grp">Bare metal / native-compiled</tspan></text>
</g>
<g class="row">

<text class="lbl" x="262" y="66.2" text-anchor="end">Rust -O (free)</text>
<rect class="bar k-rust" x="270" y="54" width="12.4" height="17" rx="3"/>
<line class="noise" x1="282.0" x2="282.0" y1="54" y2="71"/>
<line class="noise" x1="282.9" x2="282.9" y1="54" y2="71"/>
<text class="val" x="288.9" y="66.2">0.57 s <tspan class="grp">Bare metal / native-compiled</tspan></text>
</g>
<g class="row">

<text class="lbl" x="262" y="89.2" text-anchor="end">Chapel</text>
<rect class="bar k-chapel" x="270" y="77" width="12.6" height="17" rx="3"/>
<line class="noise" x1="282.5" x2="282.5" y1="77" y2="94"/>
<line class="noise" x1="282.8" x2="282.8" y1="77" y2="94"/>
<text class="val" x="288.8" y="89.2">0.57 s <tspan class="grp">Bare metal / native-compiled</tspan></text>
</g>
<g class="row">

<text class="lbl" x="262" y="112.2" text-anchor="end">D (LDC)</text>
<rect class="bar k-ldc" x="270" y="100" width="13.3" height="17" rx="3"/>
<line class="noise" x1="282.8" x2="282.8" y1="100" y2="117"/>
<line class="noise" x1="283.9" x2="283.9" y1="100" y2="117"/>
<text class="val" x="289.9" y="112.2">0.61 s <tspan class="grp">Bare metal / native-compiled</tspan></text>
</g>
<g class="row">

<text class="lbl" x="262" y="135.2" text-anchor="end">C -O2 (free)</text>
<rect class="bar k-c" x="270" y="123" width="13.5" height="17" rx="3"/>
<line class="noise" x1="283.0" x2="283.0" y1="123" y2="140"/>
<line class="noise" x1="283.9" x2="283.9" y1="123" y2="140"/>
<text class="val" x="289.9" y="135.2">0.61 s <tspan class="grp">Bare metal / native-compiled</tspan></text>
</g>
<g class="row">

<text class="lbl" x="262" y="158.2" text-anchor="end">WebAssembly</text>
<rect class="bar k-wasm" x="270" y="146" width="13.6" height="17" rx="3"/>
<line class="noise" x1="283.4" x2="283.4" y1="146" y2="163"/>
<line class="noise" x1="283.8" x2="283.8" y1="146" y2="163"/>
<text class="val" x="289.8" y="158.2">0.62 s <tspan class="grp">Compiled + interpreted (VM)</tspan></text>
</g>
<g class="row">

<text class="lbl" x="262" y="181.2" text-anchor="end">C -O2 (leak)</text>
<rect class="bar k-c" x="270" y="169" width="13.9" height="17" rx="3"/>
<line class="noise" x1="283.7" x2="283.7" y1="169" y2="186"/>
<line class="noise" x1="284.1" x2="284.1" y1="169" y2="186"/>
<text class="val" x="290.1" y="181.2">0.63 s <tspan class="grp">Bare metal / native-compiled</tspan></text>
</g>
<g class="row">

<text class="lbl" x="262" y="204.2" text-anchor="end">Odin</text>
<rect class="bar k-odin" x="270" y="192" width="15.0" height="17" rx="3"/>
<line class="noise" x1="284.7" x2="284.7" y1="192" y2="209"/>
<line class="noise" x1="285.2" x2="285.2" y1="192" y2="209"/>
<text class="val" x="291.2" y="204.2">0.68 s <tspan class="grp">Bare metal / native-compiled</tspan></text>
</g>
<g class="row">

<text class="lbl" x="262" y="227.2" text-anchor="end">Fortran</text>
<rect class="bar k-fortran" x="270" y="215" width="17.5" height="17" rx="3"/>
<line class="noise" x1="286.6" x2="286.6" y1="215" y2="232"/>
<line class="noise" x1="288.5" x2="288.5" y1="215" y2="232"/>
<text class="val" x="294.5" y="227.2">0.80 s <tspan class="grp">Bare metal / native-compiled</tspan></text>
</g>
<g class="row">

<text class="lbl" x="262" y="250.2" text-anchor="end">Caspien optimized unsafe · full</text>
<rect class="bar k-caspien" x="270" y="238" width="19.0" height="17" rx="3"/>
<line class="noise" x1="288.3" x2="288.3" y1="238" y2="255"/>
<line class="noise" x1="289.7" x2="289.7" y1="238" y2="255"/>
<text class="val" x="295.7" y="250.2">0.87 s <tspan class="grp">Caspien</tspan></text>
</g>
<g class="row">

<text class="lbl" x="262" y="273.2" text-anchor="end">Crystal</text>
<rect class="bar k-crystal" x="270" y="261" width="20.0" height="17" rx="3"/>
<line class="noise" x1="289.7" x2="289.7" y1="261" y2="278"/>
<line class="noise" x1="290.3" x2="290.3" y1="261" y2="278"/>
<text class="val" x="296.3" y="273.2">0.91 s <tspan class="grp">Bare metal / native-compiled</tspan></text>
</g>
<g class="row">

<text class="lbl" x="262" y="296.2" text-anchor="end">Caspien optimized safe · full</text>
<rect class="bar k-caspien" x="270" y="284" width="20.1" height="17" rx="3"/>
<line class="noise" x1="289.7" x2="289.7" y1="284" y2="301"/>
<line class="noise" x1="290.5" x2="290.5" y1="284" y2="301"/>
<text class="val" x="296.5" y="296.2">0.91 s <tspan class="grp">Caspien</tspan></text>
</g>
<g class="row">

<text class="lbl" x="262" y="319.2" text-anchor="end">Objective-C</text>
<rect class="bar k-objc" x="270" y="307" width="22.0" height="17" rx="3"/>
<line class="noise" x1="291.7" x2="291.7" y1="307" y2="324"/>
<line class="noise" x1="292.2" x2="292.2" y1="307" y2="324"/>
<text class="val" x="298.2" y="319.2">1.00 s <tspan class="grp">Bare metal / native-compiled</tspan></text>
</g>
<g class="row">

<text class="lbl" x="262" y="342.2" text-anchor="end">C -O0</text>
<rect class="bar k-c" x="270" y="330" width="22.6" height="17" rx="3"/>
<line class="noise" x1="292.1" x2="292.1" y1="330" y2="347"/>
<line class="noise" x1="293.0" x2="293.0" y1="330" y2="347"/>
<text class="val" x="299.0" y="342.2">1.03 s <tspan class="grp">Bare metal / native-compiled</tspan></text>
</g>
<g class="row">

<text class="lbl" x="262" y="365.2" text-anchor="end">Codon</text>
<rect class="bar k-codon" x="270" y="353" width="26.8" height="17" rx="3"/>
<line class="noise" x1="295.0" x2="295.0" y1="353" y2="370"/>
<line class="noise" x1="298.5" x2="298.5" y1="353" y2="370"/>
<text class="val" x="304.5" y="365.2">1.22 s <tspan class="grp">Bare metal / native-compiled</tspan></text>
</g>
<g class="row">

<text class="lbl" x="262" y="388.2" text-anchor="end">D (GDC)</text>
<rect class="bar k-gdc" x="270" y="376" width="32.3" height="17" rx="3"/>
<line class="noise" x1="300.7" x2="300.7" y1="376" y2="393"/>
<line class="noise" x1="303.8" x2="303.8" y1="376" y2="393"/>
<text class="val" x="309.8" y="388.2">1.47 s <tspan class="grp">Bare metal / native-compiled</tspan></text>
</g>
<g class="row">

<text class="lbl" x="262" y="411.2" text-anchor="end">Nim</text>
<rect class="bar k-nim" x="270" y="399" width="34.1" height="17" rx="3"/>
<line class="noise" x1="303.9" x2="303.9" y1="399" y2="416"/>
<line class="noise" x1="304.2" x2="304.2" y1="399" y2="416"/>
<text class="val" x="310.2" y="411.2">1.55 s <tspan class="grp">Bare metal / native-compiled</tspan></text>
</g>
<g class="row">

<text class="lbl" x="262" y="434.2" text-anchor="end">OCaml</text>
<rect class="bar k-ocaml" x="270" y="422" width="34.2" height="17" rx="3"/>
<line class="noise" x1="304.1" x2="304.1" y1="422" y2="439"/>
<line class="noise" x1="304.3" x2="304.3" y1="422" y2="439"/>
<text class="val" x="310.3" y="434.2">1.55 s <tspan class="grp">Bare metal / native-compiled</tspan></text>
</g>
<g class="row">

<text class="lbl" x="262" y="457.2" text-anchor="end">C++ -O2 (leak)</text>
<rect class="bar k-cpp" x="270" y="445" width="43.2" height="17" rx="3"/>
<line class="noise" x1="312.3" x2="312.3" y1="445" y2="462"/>
<line class="noise" x1="314.0" x2="314.0" y1="445" y2="462"/>
<text class="val" x="320.0" y="457.2">1.96 s <tspan class="grp">Bare metal / native-compiled</tspan></text>
</g>
<g class="row">

<text class="lbl" x="262" y="480.2" text-anchor="end">LuaJIT</text>
<rect class="bar k-luajit" x="270" y="468" width="43.9" height="17" rx="3"/>
<line class="noise" x1="313.2" x2="313.2" y1="468" y2="485"/>
<line class="noise" x1="314.7" x2="314.7" y1="468" y2="485"/>
<text class="val" x="320.7" y="480.2">2.00 s <tspan class="grp">Interpreted</tspan></text>
</g>
<g class="row">

<text class="lbl" x="262" y="503.2" text-anchor="end">Caspien naive (DynamicArray + HashMap) · full</text>
<rect class="bar k-caspien" x="270" y="491" width="50.8" height="17" rx="3"/>
<line class="noise" x1="317.1" x2="317.1" y1="491" y2="508"/>
<line class="noise" x1="324.5" x2="324.5" y1="491" y2="508"/>
<text class="val" x="330.5" y="503.2">2.31 s <tspan class="grp">Caspien</tspan></text>
</g>
<g class="row">

<text class="lbl" x="262" y="526.2" text-anchor="end">Swift</text>
<rect class="bar k-swift" x="270" y="514" width="50.9" height="17" rx="3"/>
<line class="noise" x1="319.2" x2="319.2" y1="514" y2="531"/>
<line class="noise" x1="322.7" x2="322.7" y1="514" y2="531"/>
<text class="val" x="328.7" y="526.2">2.32 s <tspan class="grp">Bare metal / native-compiled</tspan></text>
</g>
<g class="row">

<text class="lbl" x="262" y="549.2" text-anchor="end">C#</text>
<rect class="bar k-csharp" x="270" y="537" width="54.6" height="17" rx="3"/>
<line class="noise" x1="321.3" x2="321.3" y1="537" y2="554"/>
<line class="noise" x1="327.8" x2="327.8" y1="537" y2="554"/>
<text class="val" x="333.8" y="549.2">2.48 s <tspan class="grp">Compiled + interpreted (VM)</tspan></text>
</g>
<g class="row">

<text class="lbl" x="262" y="572.2" text-anchor="end">Go</text>
<rect class="bar k-go" x="270" y="560" width="56.9" height="17" rx="3"/>
<line class="noise" x1="324.0" x2="324.0" y1="560" y2="577"/>
<line class="noise" x1="329.7" x2="329.7" y1="560" y2="577"/>
<text class="val" x="335.7" y="572.2">2.59 s <tspan class="grp">Bare metal / native-compiled</tspan></text>
</g>
<g class="row">

<text class="lbl" x="262" y="595.2" text-anchor="end">Kotlin</text>
<rect class="bar k-kotlin" x="270" y="583" width="73.0" height="17" rx="3"/>
<line class="noise" x1="340.5" x2="340.5" y1="583" y2="600"/>
<line class="noise" x1="345.4" x2="345.4" y1="583" y2="600"/>
<text class="val" x="351.4" y="595.2">3.32 s <tspan class="grp">Compiled + interpreted (VM)</tspan></text>
</g>
<g class="row">

<text class="lbl" x="262" y="618.2" text-anchor="end">Caspien optimized unsafe · off</text>
<rect class="bar k-caspien off" x="270" y="606" width="73.8" height="17" rx="3"/>
<line class="noise" x1="337.4" x2="337.4" y1="606" y2="623"/>
<line class="noise" x1="350.2" x2="350.2" y1="606" y2="623"/>
<text class="val" x="356.2" y="618.2">3.35 s <tspan class="grp">Caspien</tspan></text>
</g>
<g class="row">

<text class="lbl" x="262" y="641.2" text-anchor="end">Java</text>
<rect class="bar k-java" x="270" y="629" width="74.7" height="17" rx="3"/>
<line class="noise" x1="337.9" x2="337.9" y1="629" y2="646"/>
<line class="noise" x1="351.6" x2="351.6" y1="629" y2="646"/>
<text class="val" x="357.6" y="641.2">3.40 s <tspan class="grp">Compiled + interpreted (VM)</tspan></text>
</g>
<g class="row">

<text class="lbl" x="262" y="664.2" text-anchor="end">C++ -O2 (free)</text>
<rect class="bar k-cpp" x="270" y="652" width="75.2" height="17" rx="3"/>
<line class="noise" x1="341.6" x2="341.6" y1="652" y2="669"/>
<line class="noise" x1="348.7" x2="348.7" y1="652" y2="669"/>
<text class="val" x="354.7" y="664.2">3.42 s <tspan class="grp">Bare metal / native-compiled</tspan></text>
</g>
<g class="row">

<text class="lbl" x="262" y="687.2" text-anchor="end">Caspien optimized safe · off</text>
<rect class="bar k-caspien off" x="270" y="675" width="91.2" height="17" rx="3"/>
<line class="noise" x1="359.1" x2="359.1" y1="675" y2="692"/>
<line class="noise" x1="363.4" x2="363.4" y1="675" y2="692"/>
<text class="val" x="369.4" y="687.2">4.15 s <tspan class="grp">Caspien</tspan></text>
</g>
<g class="row">

<text class="lbl" x="262" y="710.2" text-anchor="end">Caspien naive, ref in stdlib · full</text>
<rect class="bar k-caspien" x="270" y="698" width="122.9" height="17" rx="3"/>
<line class="noise" x1="382.2" x2="382.2" y1="698" y2="715"/>
<line class="noise" x1="403.6" x2="403.6" y1="698" y2="715"/>
<text class="val" x="409.6" y="710.2">5.59 s <tspan class="grp">Caspien</tspan></text>
</g>
<g class="row">

<text class="lbl" x="262" y="733.2" text-anchor="end">Caspien naive (DynamicArray + HashMap) · off</text>
<rect class="bar k-caspien off" x="270" y="721" width="180.6" height="17" rx="3"/>
<line class="noise" x1="444.1" x2="444.1" y1="721" y2="738"/>
<line class="noise" x1="457.2" x2="457.2" y1="721" y2="738"/>
<text class="val" x="463.2" y="733.2">8.21 s <tspan class="grp">Caspien</tspan></text>
</g>
<g class="row">

<text class="lbl" x="262" y="756.2" text-anchor="end">Caspien ref safe · full</text>
<rect class="bar k-caspien" x="270" y="744" width="186.8" height="17" rx="3"/>
<line class="noise" x1="441.8" x2="441.8" y1="744" y2="761"/>
<line class="noise" x1="471.8" x2="471.8" y1="744" y2="761"/>
<text class="val" x="477.8" y="756.2">8.49 s <tspan class="grp">Caspien</tspan></text>
</g>
<g class="row">

<text class="lbl" x="262" y="779.2" text-anchor="end">Caspien ref naive · full</text>
<rect class="bar k-caspien" x="270" y="767" width="201.9" height="17" rx="3"/>
<line class="noise" x1="456.1" x2="456.1" y1="767" y2="784"/>
<line class="noise" x1="487.8" x2="487.8" y1="767" y2="784"/>
<text class="val" x="493.8" y="779.2">9.18 s <tspan class="grp">Caspien</tspan></text>
</g>
<g class="row">

<text class="lbl" x="262" y="802.2" text-anchor="end">Caspien ref unsafe · full</text>
<rect class="bar k-caspien" x="270" y="790" width="217.3" height="17" rx="3"/>
<line class="noise" x1="481.0" x2="481.0" y1="790" y2="807"/>
<line class="noise" x1="493.5" x2="493.5" y1="790" y2="807"/>
<text class="val" x="499.5" y="802.2">9.88 s <tspan class="grp">Caspien</tspan></text>
</g>
<g class="row">

<text class="lbl" x="262" y="825.2" text-anchor="end">Node</text>
<rect class="bar k-node" x="270" y="813" width="293.6" height="17" rx="3"/>
<line class="noise" x1="546.4" x2="546.4" y1="813" y2="830"/>
<line class="noise" x1="580.9" x2="580.9" y1="813" y2="830"/>
<text class="val" x="586.9" y="825.2">13.35 s <tspan class="grp">Interpreted</tspan></text>
</g>
<g class="row">

<text class="lbl" x="262" y="848.2" text-anchor="end">Caspien naive, ref in stdlib · off</text>
<rect class="bar k-caspien off" x="270" y="836" width="314.6" height="17" rx="3"/>
<line class="noise" x1="578.3" x2="578.3" y1="836" y2="853"/>
<line class="noise" x1="590.9" x2="590.9" y1="836" y2="853"/>
<text class="val" x="596.9" y="848.2">14.30 s <tspan class="grp">Caspien</tspan></text>
</g>
<g class="row">

<text class="lbl" x="262" y="871.2" text-anchor="end">Bun</text>
<rect class="bar k-bun" x="270" y="859" width="322.4" height="17" rx="3"/>
<line class="noise" x1="574.1" x2="574.1" y1="859" y2="876"/>
<line class="noise" x1="610.6" x2="610.6" y1="859" y2="876"/>
<text class="val" x="616.6" y="871.2">14.65 s <tspan class="grp">Interpreted</tspan></text>
</g>
<g class="row">

<text class="lbl" x="262" y="894.2" text-anchor="end">Caspien ref safe · off</text>
<rect class="bar k-caspien off" x="270" y="882" width="359.2" height="17" rx="3"/>
<line class="noise" x1="617.5" x2="617.5" y1="882" y2="899"/>
<line class="noise" x1="640.9" x2="640.9" y1="882" y2="899"/>
<text class="val" x="646.9" y="894.2">16.33 s <tspan class="grp">Caspien</tspan></text>
</g>
<g class="row">

<text class="lbl" x="262" y="917.2" text-anchor="end">Caspien ref naive · off</text>
<rect class="bar k-caspien off" x="270" y="905" width="368.1" height="17" rx="3"/>
<line class="noise" x1="621.3" x2="621.3" y1="905" y2="922"/>
<line class="noise" x1="654.8" x2="654.8" y1="905" y2="922"/>
<text class="val" x="660.8" y="917.2">16.73 s <tspan class="grp">Caspien</tspan></text>
</g>
<g class="row">

<text class="lbl" x="262" y="940.2" text-anchor="end">Caspien ref unsafe · off</text>
<rect class="bar k-caspien off" x="270" y="928" width="375.1" height="17" rx="3"/>
<line class="noise" x1="638.7" x2="638.7" y1="928" y2="945"/>
<line class="noise" x1="651.4" x2="651.4" y1="928" y2="945"/>
<text class="val" x="657.4" y="940.2">17.05 s <tspan class="grp">Caspien</tspan></text>
</g>
</g><text class="sub" x="16" y="1041">Green = Caspien (hatched = optimisations off), red = native, purple = JVM/.NET/Wasm, blue = interpreted.</text><text class="sub" x="16" y="1055">Gold lines: best time -/+ typical run-to-run noise (median repeat minus best).</text></svg>
