<svg xmlns="http://www.w3.org/2000/svg" viewBox="0 0 900 883" width="900" height="883" font-family="-apple-system,Segoe UI,Helvetica,Arial,sans-serif"><style>.grid{stroke:#343a35;stroke-width:1}.noise{stroke:#e0a800;stroke-width:1.6}.tick{fill:#a1aaa2;font-size:11px}.lbl{fill:#e8ece6;font-size:12.5px}.val{fill:#e8ece6;font-size:12px}.grp{fill:#a1aaa2;font-size:10.5px}.hit{fill:transparent}.bar{fill:var(--c)}.bar.off{fill:url(#hatch);stroke:var(--c);stroke-width:1.2}.ttl{fill:#e8ece6;font-size:15px;font-weight:600}.sub{fill:#a1aaa2;font-size:11.5px}.k-caspien{--c:#5cb37f}.k-c{--c:#e16e68}.k-cpp{--c:#f3978e}.k-rust{--c:#bb5954}.k-go{--c:#f5b7b0}.k-fortran{--c:#9a504c}.k-objc{--c:#cc817a}.k-odin{--c:#ed9381}.k-zig{--c:#d5728b}.k-chapel{--c:#f7c8c0}.k-ldc{--c:#e77869}.k-gdc{--c:#f3a497}.k-nim{--c:#c85f5a}.k-crystal{--c:#e18b7e}.k-ocaml{--c:#f9d1ca}.k-swift{--c:#d66578}.k-codon{--c:#ad5e59}.k-java{--c:#9769c8}.k-csharp{--c:#826ed4}.k-kotlin{--c:#c18be1}.k-wasm{--c:#b09ae7}.k-node{--c:#5d8fdf}.k-bun{--c:#9bc1f5}.k-luajit{--c:#4f72bb}</style><defs><pattern id="hatch" width="6" height="6" patternUnits="userSpaceOnUse" patternTransform="rotate(45)"><rect width="6" height="6" fill="#28402f"/><line x1="0" y1="0" x2="0" y2="6" stroke="#5cb37f" stroke-width="2.4"/></pattern></defs><rect width="900" height="883" rx="8" fill="#1f2220" stroke="#3a413b"/><text class="ttl" x="16" y="24">Execution time: JSON serialise + parse</text><text class="sub" x="16" y="40">4,000,000 records  |  fastest of 3 runs, Linux 2-core VM; every output equals the C reference</text><g transform="translate(0,46)">
<line class="grid" x1="270.0" x2="270.0" y1="6" y2="771"/>
<text class="tick" x="270.0" y="785" text-anchor="middle">0</text>
<line class="grid" x1="358.0" x2="358.0" y1="6" y2="771"/>
<text class="tick" x="358.0" y="785" text-anchor="middle">2</text>
<line class="grid" x1="446.0" x2="446.0" y1="6" y2="771"/>
<text class="tick" x="446.0" y="785" text-anchor="middle">4</text>
<line class="grid" x1="534.0" x2="534.0" y1="6" y2="771"/>
<text class="tick" x="534.0" y="785" text-anchor="middle">6</text>
<line class="grid" x1="622.0" x2="622.0" y1="6" y2="771"/>
<text class="tick" x="622.0" y="785" text-anchor="middle">8</text>
<line class="grid" x1="710.0" x2="710.0" y1="6" y2="771"/>
<text class="tick" x="710.0" y="785" text-anchor="middle">10</text>
<g class="row">

<text class="lbl" x="262" y="20.2" text-anchor="end">Zig</text>
<rect class="bar k-zig" x="270" y="8" width="33.7" height="17" rx="3"/>
<line class="noise" x1="303.2" x2="303.2" y1="8" y2="25"/>
<line class="noise" x1="304.2" x2="304.2" y1="8" y2="25"/>
<text class="val" x="310.2" y="20.2">0.77 s <tspan class="grp">Bare metal / native-compiled</tspan></text>
</g>
<g class="row">

<text class="lbl" x="262" y="43.2" text-anchor="end">Chapel</text>
<rect class="bar k-chapel" x="270" y="31" width="34.0" height="17" rx="3"/>
<line class="noise" x1="303.9" x2="303.9" y1="31" y2="48"/>
<line class="noise" x1="304.2" x2="304.2" y1="31" y2="48"/>
<text class="val" x="310.2" y="43.2">0.77 s <tspan class="grp">Bare metal / native-compiled</tspan></text>
</g>
<g class="row">

<text class="lbl" x="262" y="66.2" text-anchor="end">C -O2 (free)</text>
<rect class="bar k-c" x="270" y="54" width="34.3" height="17" rx="3"/>
<line class="noise" x1="303.5" x2="303.5" y1="54" y2="71"/>
<line class="noise" x1="305.1" x2="305.1" y1="54" y2="71"/>
<text class="val" x="311.1" y="66.2">0.78 s <tspan class="grp">Bare metal / native-compiled</tspan></text>
</g>
<g class="row">

<text class="lbl" x="262" y="89.2" text-anchor="end">C++ -O2 (leak)</text>
<rect class="bar k-cpp" x="270" y="77" width="34.6" height="17" rx="3"/>
<line class="noise" x1="303.6" x2="303.6" y1="77" y2="94"/>
<line class="noise" x1="305.6" x2="305.6" y1="77" y2="94"/>
<text class="val" x="311.6" y="89.2">0.79 s <tspan class="grp">Bare metal / native-compiled</tspan></text>
</g>
<g class="row">

<text class="lbl" x="262" y="112.2" text-anchor="end">C -O2 (leak)</text>
<rect class="bar k-c" x="270" y="100" width="34.7" height="17" rx="3"/>
<line class="noise" x1="302.7" x2="302.7" y1="100" y2="117"/>
<line class="noise" x1="306.6" x2="306.6" y1="100" y2="117"/>
<text class="val" x="312.6" y="112.2">0.79 s <tspan class="grp">Bare metal / native-compiled</tspan></text>
</g>
<g class="row">

<text class="lbl" x="262" y="135.2" text-anchor="end">Fortran</text>
<rect class="bar k-fortran" x="270" y="123" width="35.0" height="17" rx="3"/>
<line class="noise" x1="304.6" x2="304.6" y1="123" y2="140"/>
<line class="noise" x1="305.4" x2="305.4" y1="123" y2="140"/>
<text class="val" x="311.4" y="135.2">0.79 s <tspan class="grp">Bare metal / native-compiled</tspan></text>
</g>
<g class="row">

<text class="lbl" x="262" y="158.2" text-anchor="end">Rust -O (free)</text>
<rect class="bar k-rust" x="270" y="146" width="36.5" height="17" rx="3"/>
<line class="noise" x1="305.7" x2="305.7" y1="146" y2="163"/>
<line class="noise" x1="307.2" x2="307.2" y1="146" y2="163"/>
<text class="val" x="313.2" y="158.2">0.83 s <tspan class="grp">Bare metal / native-compiled</tspan></text>
</g>
<g class="row">

<text class="lbl" x="262" y="181.2" text-anchor="end">Rust -O (leak)</text>
<rect class="bar k-rust" x="270" y="169" width="36.5" height="17" rx="3"/>
<line class="noise" x1="306.0" x2="306.0" y1="169" y2="186"/>
<line class="noise" x1="307.1" x2="307.1" y1="169" y2="186"/>
<text class="val" x="313.1" y="181.2">0.83 s <tspan class="grp">Bare metal / native-compiled</tspan></text>
</g>
<g class="row">

<text class="lbl" x="262" y="204.2" text-anchor="end">C++ -O2 (free)</text>
<rect class="bar k-cpp" x="270" y="192" width="37.4" height="17" rx="3"/>
<line class="noise" x1="304.7" x2="304.7" y1="192" y2="209"/>
<line class="noise" x1="310.1" x2="310.1" y1="192" y2="209"/>
<text class="val" x="316.1" y="204.2">0.85 s <tspan class="grp">Bare metal / native-compiled</tspan></text>
</g>
<g class="row">

<text class="lbl" x="262" y="227.2" text-anchor="end">D (LDC)</text>
<rect class="bar k-ldc" x="270" y="215" width="37.6" height="17" rx="3"/>
<line class="noise" x1="305.8" x2="305.8" y1="215" y2="232"/>
<line class="noise" x1="309.5" x2="309.5" y1="215" y2="232"/>
<text class="val" x="315.5" y="227.2">0.86 s <tspan class="grp">Bare metal / native-compiled</tspan></text>
</g>
<g class="row">

<text class="lbl" x="262" y="250.2" text-anchor="end">Odin</text>
<rect class="bar k-odin" x="270" y="238" width="38.7" height="17" rx="3"/>
<line class="noise" x1="306.9" x2="306.9" y1="238" y2="255"/>
<line class="noise" x1="310.5" x2="310.5" y1="238" y2="255"/>
<text class="val" x="316.5" y="250.2">0.88 s <tspan class="grp">Bare metal / native-compiled</tspan></text>
</g>
<g class="row">

<text class="lbl" x="262" y="273.2" text-anchor="end">D (GDC)</text>
<rect class="bar k-gdc" x="270" y="261" width="39.5" height="17" rx="3"/>
<line class="noise" x1="306.6" x2="306.6" y1="261" y2="278"/>
<line class="noise" x1="312.4" x2="312.4" y1="261" y2="278"/>
<text class="val" x="318.4" y="273.2">0.90 s <tspan class="grp">Bare metal / native-compiled</tspan></text>
</g>
<g class="row">

<text class="lbl" x="262" y="296.2" text-anchor="end">Go</text>
<rect class="bar k-go" x="270" y="284" width="43.7" height="17" rx="3"/>
<line class="noise" x1="313.6" x2="313.6" y1="284" y2="301"/>
<line class="noise" x1="313.8" x2="313.8" y1="284" y2="301"/>
<text class="val" x="319.8" y="296.2">0.99 s <tspan class="grp">Bare metal / native-compiled</tspan></text>
</g>
<g class="row">

<text class="lbl" x="262" y="319.2" text-anchor="end">WebAssembly</text>
<rect class="bar k-wasm" x="270" y="307" width="45.4" height="17" rx="3"/>
<line class="noise" x1="315.1" x2="315.1" y1="307" y2="324"/>
<line class="noise" x1="315.7" x2="315.7" y1="307" y2="324"/>
<text class="val" x="321.7" y="319.2">1.03 s <tspan class="grp">Compiled + interpreted (VM)</tspan></text>
</g>
<g class="row">

<text class="lbl" x="262" y="342.2" text-anchor="end">C#</text>
<rect class="bar k-csharp" x="270" y="330" width="46.2" height="17" rx="3"/>
<line class="noise" x1="315.8" x2="315.8" y1="330" y2="347"/>
<line class="noise" x1="316.6" x2="316.6" y1="330" y2="347"/>
<text class="val" x="322.6" y="342.2">1.05 s <tspan class="grp">Compiled + interpreted (VM)</tspan></text>
</g>
<g class="row">

<text class="lbl" x="262" y="365.2" text-anchor="end">Objective-C</text>
<rect class="bar k-objc" x="270" y="353" width="51.1" height="17" rx="3"/>
<line class="noise" x1="318.7" x2="318.7" y1="353" y2="370"/>
<line class="noise" x1="323.4" x2="323.4" y1="353" y2="370"/>
<text class="val" x="329.4" y="365.2">1.16 s <tspan class="grp">Bare metal / native-compiled</tspan></text>
</g>
<g class="row">

<text class="lbl" x="262" y="388.2" text-anchor="end">Kotlin</text>
<rect class="bar k-kotlin" x="270" y="376" width="54.2" height="17" rx="3"/>
<line class="noise" x1="324.0" x2="324.0" y1="376" y2="393"/>
<line class="noise" x1="324.5" x2="324.5" y1="376" y2="393"/>
<text class="val" x="330.5" y="388.2">1.23 s <tspan class="grp">Compiled + interpreted (VM)</tspan></text>
</g>
<g class="row">

<text class="lbl" x="262" y="411.2" text-anchor="end">Java</text>
<rect class="bar k-java" x="270" y="399" width="54.3" height="17" rx="3"/>
<line class="noise" x1="322.3" x2="322.3" y1="399" y2="416"/>
<line class="noise" x1="326.3" x2="326.3" y1="399" y2="416"/>
<text class="val" x="332.3" y="411.2">1.23 s <tspan class="grp">Compiled + interpreted (VM)</tspan></text>
</g>
<g class="row">

<text class="lbl" x="262" y="434.2" text-anchor="end">Crystal</text>
<rect class="bar k-crystal" x="270" y="422" width="55.4" height="17" rx="3"/>
<line class="noise" x1="324.5" x2="324.5" y1="422" y2="439"/>
<line class="noise" x1="326.4" x2="326.4" y1="422" y2="439"/>
<text class="val" x="332.4" y="434.2">1.26 s <tspan class="grp">Bare metal / native-compiled</tspan></text>
</g>
<g class="row">

<text class="lbl" x="262" y="457.2" text-anchor="end">OCaml</text>
<rect class="bar k-ocaml" x="270" y="445" width="64.4" height="17" rx="3"/>
<line class="noise" x1="333.8" x2="333.8" y1="445" y2="462"/>
<line class="noise" x1="335.1" x2="335.1" y1="445" y2="462"/>
<text class="val" x="341.1" y="457.2">1.46 s <tspan class="grp">Bare metal / native-compiled</tspan></text>
</g>
<g class="row">

<text class="lbl" x="262" y="480.2" text-anchor="end">Nim</text>
<rect class="bar k-nim" x="270" y="468" width="66.5" height="17" rx="3"/>
<line class="noise" x1="335.9" x2="335.9" y1="468" y2="485"/>
<line class="noise" x1="337.1" x2="337.1" y1="468" y2="485"/>
<text class="val" x="343.1" y="480.2">1.51 s <tspan class="grp">Bare metal / native-compiled</tspan></text>
</g>
<g class="row">

<text class="lbl" x="262" y="503.2" text-anchor="end">Swift</text>
<rect class="bar k-swift" x="270" y="491" width="67.9" height="17" rx="3"/>
<line class="noise" x1="337.3" x2="337.3" y1="491" y2="508"/>
<line class="noise" x1="338.5" x2="338.5" y1="491" y2="508"/>
<text class="val" x="344.5" y="503.2">1.54 s <tspan class="grp">Bare metal / native-compiled</tspan></text>
</g>
<g class="row">

<text class="lbl" x="262" y="526.2" text-anchor="end">C -O0</text>
<rect class="bar k-c" x="270" y="514" width="70.1" height="17" rx="3"/>
<line class="noise" x1="336.9" x2="336.9" y1="514" y2="531"/>
<line class="noise" x1="343.2" x2="343.2" y1="514" y2="531"/>
<text class="val" x="349.2" y="526.2">1.59 s <tspan class="grp">Bare metal / native-compiled</tspan></text>
</g>
<g class="row">

<text class="lbl" x="262" y="549.2" text-anchor="end">Caspien optimized unsafe · full</text>
<rect class="bar k-caspien" x="270" y="537" width="72.4" height="17" rx="3"/>
<line class="noise" x1="341.1" x2="341.1" y1="537" y2="554"/>
<line class="noise" x1="343.8" x2="343.8" y1="537" y2="554"/>
<text class="val" x="349.8" y="549.2">1.65 s <tspan class="grp">Caspien</tspan></text>
</g>
<g class="row">

<text class="lbl" x="262" y="572.2" text-anchor="end">Caspien optimized safe · full</text>
<rect class="bar k-caspien" x="270" y="560" width="82.9" height="17" rx="3"/>
<line class="noise" x1="352.4" x2="352.4" y1="560" y2="577"/>
<line class="noise" x1="353.4" x2="353.4" y1="560" y2="577"/>
<text class="val" x="359.4" y="572.2">1.88 s <tspan class="grp">Caspien</tspan></text>
</g>
<g class="row">

<text class="lbl" x="262" y="595.2" text-anchor="end">Codon</text>
<rect class="bar k-codon" x="270" y="583" width="87.1" height="17" rx="3"/>
<line class="noise" x1="356.1" x2="356.1" y1="583" y2="600"/>
<line class="noise" x1="358.2" x2="358.2" y1="583" y2="600"/>
<text class="val" x="364.2" y="595.2">1.98 s <tspan class="grp">Bare metal / native-compiled</tspan></text>
</g>
<g class="row">

<text class="lbl" x="262" y="618.2" text-anchor="end">Node</text>
<rect class="bar k-node" x="270" y="606" width="95.8" height="17" rx="3"/>
<line class="noise" x1="364.2" x2="364.2" y1="606" y2="623"/>
<line class="noise" x1="367.3" x2="367.3" y1="606" y2="623"/>
<text class="val" x="373.3" y="618.2">2.18 s <tspan class="grp">Interpreted</tspan></text>
</g>
<g class="row">

<text class="lbl" x="262" y="641.2" text-anchor="end">Caspien naive (DynamicArray) · full</text>
<rect class="bar k-caspien" x="270" y="629" width="99.7" height="17" rx="3"/>
<line class="noise" x1="367.0" x2="367.0" y1="629" y2="646"/>
<line class="noise" x1="372.4" x2="372.4" y1="629" y2="646"/>
<text class="val" x="378.4" y="641.2">2.27 s <tspan class="grp">Caspien</tspan></text>
</g>
<g class="row">

<text class="lbl" x="262" y="664.2" text-anchor="end">LuaJIT</text>
<rect class="bar k-luajit" x="270" y="652" width="102.7" height="17" rx="3"/>
<line class="noise" x1="372.0" x2="372.0" y1="652" y2="669"/>
<line class="noise" x1="373.4" x2="373.4" y1="652" y2="669"/>
<text class="val" x="379.4" y="664.2">2.33 s <tspan class="grp">Interpreted</tspan></text>
</g>
<g class="row">

<text class="lbl" x="262" y="687.2" text-anchor="end">Bun</text>
<rect class="bar k-bun" x="270" y="675" width="104.5" height="17" rx="3"/>
<line class="noise" x1="373.3" x2="373.3" y1="675" y2="692"/>
<line class="noise" x1="375.7" x2="375.7" y1="675" y2="692"/>
<text class="val" x="381.7" y="687.2">2.37 s <tspan class="grp">Interpreted</tspan></text>
</g>
<g class="row">

<text class="lbl" x="262" y="710.2" text-anchor="end">Caspien optimized unsafe · off</text>
<rect class="bar k-caspien off" x="270" y="698" width="169.4" height="17" rx="3"/>
<line class="noise" x1="436.6" x2="436.6" y1="698" y2="715"/>
<line class="noise" x1="442.1" x2="442.1" y1="698" y2="715"/>
<text class="val" x="448.1" y="710.2">3.85 s <tspan class="grp">Caspien</tspan></text>
</g>
<g class="row">

<text class="lbl" x="262" y="733.2" text-anchor="end">Caspien optimized safe · off</text>
<rect class="bar k-caspien off" x="270" y="721" width="204.9" height="17" rx="3"/>
<line class="noise" x1="474.1" x2="474.1" y1="721" y2="738"/>
<line class="noise" x1="475.8" x2="475.8" y1="721" y2="738"/>
<text class="val" x="481.8" y="733.2">4.66 s <tspan class="grp">Caspien</tspan></text>
</g>
<g class="row">

<text class="lbl" x="262" y="756.2" text-anchor="end">Caspien naive (DynamicArray) · off</text>
<rect class="bar k-caspien off" x="270" y="744" width="429.4" height="17" rx="3"/>
<line class="noise" x1="686.7" x2="686.7" y1="744" y2="761"/>
<line class="noise" x1="712.1" x2="712.1" y1="744" y2="761"/>
<text class="val" x="718.1" y="756.2">9.76 s <tspan class="grp">Caspien</tspan></text>
</g>
</g><text class="sub" x="16" y="857">Green = Caspien (hatched = optimisations off), red = native, purple = JVM/.NET/Wasm, blue = interpreted.</text><text class="sub" x="16" y="871">Gold lines: best time -/+ typical run-to-run noise (median repeat minus best).</text></svg>
