<svg xmlns="http://www.w3.org/2000/svg" viewBox="0 0 900 883" width="900" height="883" font-family="-apple-system,Segoe UI,Helvetica,Arial,sans-serif"><style>.grid{stroke:#343a35;stroke-width:1}.noise{stroke:#e0a800;stroke-width:1.6}.tick{fill:#a1aaa2;font-size:11px}.lbl{fill:#e8ece6;font-size:12.5px}.val{fill:#e8ece6;font-size:12px}.grp{fill:#a1aaa2;font-size:10.5px}.hit{fill:transparent}.bar{fill:var(--c)}.bar.off{fill:url(#hatch);stroke:var(--c);stroke-width:1.2}.ttl{fill:#e8ece6;font-size:15px;font-weight:600}.sub{fill:#a1aaa2;font-size:11.5px}.k-caspien{--c:#5cb37f}.k-c{--c:#e16e68}.k-cpp{--c:#f3978e}.k-rust{--c:#bb5954}.k-go{--c:#f5b7b0}.k-fortran{--c:#9a504c}.k-objc{--c:#cc817a}.k-odin{--c:#ed9381}.k-zig{--c:#d5728b}.k-chapel{--c:#f7c8c0}.k-ldc{--c:#e77869}.k-gdc{--c:#f3a497}.k-nim{--c:#c85f5a}.k-crystal{--c:#e18b7e}.k-ocaml{--c:#f9d1ca}.k-swift{--c:#d66578}.k-codon{--c:#ad5e59}.k-java{--c:#9769c8}.k-csharp{--c:#826ed4}.k-kotlin{--c:#c18be1}.k-wasm{--c:#b09ae7}.k-node{--c:#5d8fdf}.k-bun{--c:#9bc1f5}.k-luajit{--c:#4f72bb}</style><defs><pattern id="hatch" width="6" height="6" patternUnits="userSpaceOnUse" patternTransform="rotate(45)"><rect width="6" height="6" fill="#28402f"/><line x1="0" y1="0" x2="0" y2="6" stroke="#5cb37f" stroke-width="2.4"/></pattern></defs><rect width="900" height="883" rx="8" fill="#1f2220" stroke="#3a413b"/><text class="ttl" x="16" y="24">Execution time: String manipulation</text><text class="sub" x="16" y="40">20,000,000 characters  |  fastest of 5 runs, Linux 2-core VM; every output equals the C reference</text><g transform="translate(0,46)">
<line class="grid" x1="270.0" x2="270.0" y1="6" y2="771"/>
<text class="tick" x="270.0" y="785" text-anchor="middle">0</text>
<line class="grid" x1="416.7" x2="416.7" y1="6" y2="771"/>
<text class="tick" x="416.7" y="785" text-anchor="middle">2</text>
<line class="grid" x1="563.3" x2="563.3" y1="6" y2="771"/>
<text class="tick" x="563.3" y="785" text-anchor="middle">4</text>
<line class="grid" x1="710.0" x2="710.0" y1="6" y2="771"/>
<text class="tick" x="710.0" y="785" text-anchor="middle">6</text>
<g class="row">

<text class="lbl" x="262" y="20.2" text-anchor="end">Zig</text>
<rect class="bar k-zig" x="270" y="8" width="14.2" height="17" rx="3"/>
<line class="noise" x1="283.3" x2="283.3" y1="8" y2="25"/>
<line class="noise" x1="285.0" x2="285.0" y1="8" y2="25"/>
<text class="val" x="291.0" y="20.2">0.19 s <tspan class="grp">Bare metal / native-compiled</tspan></text>
</g>
<g class="row">

<text class="lbl" x="262" y="43.2" text-anchor="end">C++ -O2 (leak)</text>
<rect class="bar k-cpp" x="270" y="31" width="15.4" height="17" rx="3"/>
<line class="noise" x1="284.8" x2="284.8" y1="31" y2="48"/>
<line class="noise" x1="286.0" x2="286.0" y1="31" y2="48"/>
<text class="val" x="292.0" y="43.2">0.21 s <tspan class="grp">Bare metal / native-compiled</tspan></text>
</g>
<g class="row">

<text class="lbl" x="262" y="66.2" text-anchor="end">Rust -O (free)</text>
<rect class="bar k-rust" x="270" y="54" width="15.7" height="17" rx="3"/>
<line class="noise" x1="285.2" x2="285.2" y1="54" y2="71"/>
<line class="noise" x1="286.1" x2="286.1" y1="54" y2="71"/>
<text class="val" x="292.1" y="66.2">0.21 s <tspan class="grp">Bare metal / native-compiled</tspan></text>
</g>
<g class="row">

<text class="lbl" x="262" y="89.2" text-anchor="end">Rust -O (leak)</text>
<rect class="bar k-rust" x="270" y="77" width="15.7" height="17" rx="3"/>
<line class="noise" x1="285.5" x2="285.5" y1="77" y2="94"/>
<line class="noise" x1="286.0" x2="286.0" y1="77" y2="94"/>
<text class="val" x="292.0" y="89.2">0.21 s <tspan class="grp">Bare metal / native-compiled</tspan></text>
</g>
<g class="row">

<text class="lbl" x="262" y="112.2" text-anchor="end">Chapel</text>
<rect class="bar k-chapel" x="270" y="100" width="15.9" height="17" rx="3"/>
<line class="noise" x1="285.4" x2="285.4" y1="100" y2="117"/>
<line class="noise" x1="286.3" x2="286.3" y1="100" y2="117"/>
<text class="val" x="292.3" y="112.2">0.22 s <tspan class="grp">Bare metal / native-compiled</tspan></text>
</g>
<g class="row">

<text class="lbl" x="262" y="135.2" text-anchor="end">C++ -O2 (free)</text>
<rect class="bar k-cpp" x="270" y="123" width="16.1" height="17" rx="3"/>
<line class="noise" x1="285.7" x2="285.7" y1="123" y2="140"/>
<line class="noise" x1="286.4" x2="286.4" y1="123" y2="140"/>
<text class="val" x="292.4" y="135.2">0.22 s <tspan class="grp">Bare metal / native-compiled</tspan></text>
</g>
<g class="row">

<text class="lbl" x="262" y="158.2" text-anchor="end">C -O2 (leak)</text>
<rect class="bar k-c" x="270" y="146" width="16.2" height="17" rx="3"/>
<line class="noise" x1="286.1" x2="286.1" y1="146" y2="163"/>
<line class="noise" x1="286.3" x2="286.3" y1="146" y2="163"/>
<text class="val" x="292.3" y="158.2">0.22 s <tspan class="grp">Bare metal / native-compiled</tspan></text>
</g>
<g class="row">

<text class="lbl" x="262" y="181.2" text-anchor="end">D (LDC)</text>
<rect class="bar k-ldc" x="270" y="169" width="16.3" height="17" rx="3"/>
<line class="noise" x1="285.6" x2="285.6" y1="169" y2="186"/>
<line class="noise" x1="286.9" x2="286.9" y1="169" y2="186"/>
<text class="val" x="292.9" y="181.2">0.22 s <tspan class="grp">Bare metal / native-compiled</tspan></text>
</g>
<g class="row">

<text class="lbl" x="262" y="204.2" text-anchor="end">C -O2 (free)</text>
<rect class="bar k-c" x="270" y="192" width="16.5" height="17" rx="3"/>
<line class="noise" x1="286.4" x2="286.4" y1="192" y2="209"/>
<line class="noise" x1="286.6" x2="286.6" y1="192" y2="209"/>
<text class="val" x="292.6" y="204.2">0.23 s <tspan class="grp">Bare metal / native-compiled</tspan></text>
</g>
<g class="row">

<text class="lbl" x="262" y="227.2" text-anchor="end">Objective-C</text>
<rect class="bar k-objc" x="270" y="215" width="16.7" height="17" rx="3"/>
<line class="noise" x1="286.5" x2="286.5" y1="215" y2="232"/>
<line class="noise" x1="286.8" x2="286.8" y1="215" y2="232"/>
<text class="val" x="292.8" y="227.2">0.23 s <tspan class="grp">Bare metal / native-compiled</tspan></text>
</g>
<g class="row">

<text class="lbl" x="262" y="250.2" text-anchor="end">Odin</text>
<rect class="bar k-odin" x="270" y="238" width="18.7" height="17" rx="3"/>
<line class="noise" x1="288.4" x2="288.4" y1="238" y2="255"/>
<line class="noise" x1="288.9" x2="288.9" y1="238" y2="255"/>
<text class="val" x="294.9" y="250.2">0.25 s <tspan class="grp">Bare metal / native-compiled</tspan></text>
</g>
<g class="row">

<text class="lbl" x="262" y="273.2" text-anchor="end">Fortran</text>
<rect class="bar k-fortran" x="270" y="261" width="18.8" height="17" rx="3"/>
<line class="noise" x1="287.8" x2="287.8" y1="261" y2="278"/>
<line class="noise" x1="289.8" x2="289.8" y1="261" y2="278"/>
<text class="val" x="295.8" y="273.2">0.26 s <tspan class="grp">Bare metal / native-compiled</tspan></text>
</g>
<g class="row">

<text class="lbl" x="262" y="296.2" text-anchor="end">D (GDC)</text>
<rect class="bar k-gdc" x="270" y="284" width="18.8" height="17" rx="3"/>
<line class="noise" x1="288.1" x2="288.1" y1="284" y2="301"/>
<line class="noise" x1="289.6" x2="289.6" y1="284" y2="301"/>
<text class="val" x="295.6" y="296.2">0.26 s <tspan class="grp">Bare metal / native-compiled</tspan></text>
</g>
<g class="row">

<text class="lbl" x="262" y="319.2" text-anchor="end">Codon</text>
<rect class="bar k-codon" x="270" y="307" width="19.3" height="17" rx="3"/>
<line class="noise" x1="289.1" x2="289.1" y1="307" y2="324"/>
<line class="noise" x1="289.5" x2="289.5" y1="307" y2="324"/>
<text class="val" x="295.5" y="319.2">0.26 s <tspan class="grp">Bare metal / native-compiled</tspan></text>
</g>
<g class="row">

<text class="lbl" x="262" y="342.2" text-anchor="end">WebAssembly</text>
<rect class="bar k-wasm" x="270" y="330" width="19.6" height="17" rx="3"/>
<line class="noise" x1="289.1" x2="289.1" y1="330" y2="347"/>
<line class="noise" x1="290.2" x2="290.2" y1="330" y2="347"/>
<text class="val" x="296.2" y="342.2">0.27 s <tspan class="grp">Compiled + interpreted (VM)</tspan></text>
</g>
<g class="row">

<text class="lbl" x="262" y="365.2" text-anchor="end">Crystal</text>
<rect class="bar k-crystal" x="270" y="353" width="19.7" height="17" rx="3"/>
<line class="noise" x1="289.5" x2="289.5" y1="353" y2="370"/>
<line class="noise" x1="289.9" x2="289.9" y1="353" y2="370"/>
<text class="val" x="295.9" y="365.2">0.27 s <tspan class="grp">Bare metal / native-compiled</tspan></text>
</g>
<g class="row">

<text class="lbl" x="262" y="388.2" text-anchor="end">Go</text>
<rect class="bar k-go" x="270" y="376" width="20.7" height="17" rx="3"/>
<line class="noise" x1="289.9" x2="289.9" y1="376" y2="393"/>
<line class="noise" x1="291.5" x2="291.5" y1="376" y2="393"/>
<text class="val" x="297.5" y="388.2">0.28 s <tspan class="grp">Bare metal / native-compiled</tspan></text>
</g>
<g class="row">

<text class="lbl" x="262" y="411.2" text-anchor="end">Caspien optimized unsafe · full</text>
<rect class="bar k-caspien" x="270" y="399" width="20.8" height="17" rx="3"/>
<line class="noise" x1="289.8" x2="289.8" y1="399" y2="416"/>
<line class="noise" x1="291.8" x2="291.8" y1="399" y2="416"/>
<text class="val" x="297.8" y="411.2">0.28 s <tspan class="grp">Caspien</tspan></text>
</g>
<g class="row">

<text class="lbl" x="262" y="434.2" text-anchor="end">Caspien optimized safe · full</text>
<rect class="bar k-caspien" x="270" y="422" width="22.8" height="17" rx="3"/>
<line class="noise" x1="291.7" x2="291.7" y1="422" y2="439"/>
<line class="noise" x1="293.8" x2="293.8" y1="422" y2="439"/>
<text class="val" x="299.8" y="434.2">0.31 s <tspan class="grp">Caspien</tspan></text>
</g>
<g class="row">

<text class="lbl" x="262" y="457.2" text-anchor="end">Kotlin</text>
<rect class="bar k-kotlin" x="270" y="445" width="23.7" height="17" rx="3"/>
<line class="noise" x1="292.6" x2="292.6" y1="445" y2="462"/>
<line class="noise" x1="294.7" x2="294.7" y1="445" y2="462"/>
<text class="val" x="300.7" y="457.2">0.32 s <tspan class="grp">Compiled + interpreted (VM)</tspan></text>
</g>
<g class="row">

<text class="lbl" x="262" y="480.2" text-anchor="end">C#</text>
<rect class="bar k-csharp" x="270" y="468" width="25.1" height="17" rx="3"/>
<line class="noise" x1="294.6" x2="294.6" y1="468" y2="485"/>
<line class="noise" x1="295.5" x2="295.5" y1="468" y2="485"/>
<text class="val" x="301.5" y="480.2">0.34 s <tspan class="grp">Compiled + interpreted (VM)</tspan></text>
</g>
<g class="row">

<text class="lbl" x="262" y="503.2" text-anchor="end">Java</text>
<rect class="bar k-java" x="270" y="491" width="25.9" height="17" rx="3"/>
<line class="noise" x1="294.5" x2="294.5" y1="491" y2="508"/>
<line class="noise" x1="297.3" x2="297.3" y1="491" y2="508"/>
<text class="val" x="303.3" y="503.2">0.35 s <tspan class="grp">Compiled + interpreted (VM)</tspan></text>
</g>
<g class="row">

<text class="lbl" x="262" y="526.2" text-anchor="end">Nim</text>
<rect class="bar k-nim" x="270" y="514" width="30.4" height="17" rx="3"/>
<line class="noise" x1="299.7" x2="299.7" y1="514" y2="531"/>
<line class="noise" x1="301.1" x2="301.1" y1="514" y2="531"/>
<text class="val" x="307.1" y="526.2">0.41 s <tspan class="grp">Bare metal / native-compiled</tspan></text>
</g>
<g class="row">

<text class="lbl" x="262" y="549.2" text-anchor="end">Swift</text>
<rect class="bar k-swift" x="270" y="537" width="30.8" height="17" rx="3"/>
<line class="noise" x1="300.2" x2="300.2" y1="537" y2="554"/>
<line class="noise" x1="301.3" x2="301.3" y1="537" y2="554"/>
<text class="val" x="307.3" y="549.2">0.42 s <tspan class="grp">Bare metal / native-compiled</tspan></text>
</g>
<g class="row">

<text class="lbl" x="262" y="572.2" text-anchor="end">OCaml</text>
<rect class="bar k-ocaml" x="270" y="560" width="34.7" height="17" rx="3"/>
<line class="noise" x1="303.7" x2="303.7" y1="560" y2="577"/>
<line class="noise" x1="305.7" x2="305.7" y1="560" y2="577"/>
<text class="val" x="311.7" y="572.2">0.47 s <tspan class="grp">Bare metal / native-compiled</tspan></text>
</g>
<g class="row">

<text class="lbl" x="262" y="595.2" text-anchor="end">C -O0</text>
<rect class="bar k-c" x="270" y="583" width="35.1" height="17" rx="3"/>
<line class="noise" x1="305.0" x2="305.0" y1="583" y2="600"/>
<line class="noise" x1="305.2" x2="305.2" y1="583" y2="600"/>
<text class="val" x="311.2" y="595.2">0.48 s <tspan class="grp">Bare metal / native-compiled</tspan></text>
</g>
<g class="row">

<text class="lbl" x="262" y="618.2" text-anchor="end">Bun</text>
<rect class="bar k-bun" x="270" y="606" width="44.1" height="17" rx="3"/>
<line class="noise" x1="312.8" x2="312.8" y1="606" y2="623"/>
<line class="noise" x1="315.5" x2="315.5" y1="606" y2="623"/>
<text class="val" x="321.5" y="618.2">0.60 s <tspan class="grp">Interpreted</tspan></text>
</g>
<g class="row">

<text class="lbl" x="262" y="641.2" text-anchor="end">Node</text>
<rect class="bar k-node" x="270" y="629" width="49.9" height="17" rx="3"/>
<line class="noise" x1="319.0" x2="319.0" y1="629" y2="646"/>
<line class="noise" x1="320.8" x2="320.8" y1="629" y2="646"/>
<text class="val" x="326.8" y="641.2">0.68 s <tspan class="grp">Interpreted</tspan></text>
</g>
<g class="row">

<text class="lbl" x="262" y="664.2" text-anchor="end">LuaJIT</text>
<rect class="bar k-luajit" x="270" y="652" width="66.6" height="17" rx="3"/>
<line class="noise" x1="334.2" x2="334.2" y1="652" y2="669"/>
<line class="noise" x1="339.0" x2="339.0" y1="652" y2="669"/>
<text class="val" x="345.0" y="664.2">0.91 s <tspan class="grp">Interpreted</tspan></text>
</g>
<g class="row">

<text class="lbl" x="262" y="687.2" text-anchor="end">Caspien optimized unsafe · off</text>
<rect class="bar k-caspien off" x="270" y="675" width="71.7" height="17" rx="3"/>
<line class="noise" x1="336.5" x2="336.5" y1="675" y2="692"/>
<line class="noise" x1="346.9" x2="346.9" y1="675" y2="692"/>
<text class="val" x="352.9" y="687.2">0.98 s <tspan class="grp">Caspien</tspan></text>
</g>
<g class="row">

<text class="lbl" x="262" y="710.2" text-anchor="end">Caspien optimized safe · off</text>
<rect class="bar k-caspien off" x="270" y="698" width="107.2" height="17" rx="3"/>
<line class="noise" x1="372.8" x2="372.8" y1="698" y2="715"/>
<line class="noise" x1="381.6" x2="381.6" y1="698" y2="715"/>
<text class="val" x="387.6" y="710.2">1.46 s <tspan class="grp">Caspien</tspan></text>
</g>
<g class="row">

<text class="lbl" x="262" y="733.2" text-anchor="end">Caspien naive (String class) · full</text>
<rect class="bar k-caspien" x="270" y="721" width="190.6" height="17" rx="3"/>
<line class="noise" x1="456.7" x2="456.7" y1="721" y2="738"/>
<line class="noise" x1="464.5" x2="464.5" y1="721" y2="738"/>
<text class="val" x="470.5" y="733.2">2.60 s <tspan class="grp">Caspien</tspan></text>
</g>
<g class="row">

<text class="lbl" x="262" y="756.2" text-anchor="end">Caspien naive (String class) · off</text>
<rect class="bar k-caspien off" x="270" y="744" width="376.1" height="17" rx="3"/>
<line class="noise" x1="640.7" x2="640.7" y1="744" y2="761"/>
<line class="noise" x1="651.5" x2="651.5" y1="744" y2="761"/>
<text class="val" x="657.5" y="756.2">5.13 s <tspan class="grp">Caspien</tspan></text>
</g>
</g><text class="sub" x="16" y="857">Green = Caspien (hatched = optimisations off), red = native, purple = JVM/.NET/Wasm, blue = interpreted.</text><text class="sub" x="16" y="871">Gold lines: best time -/+ typical run-to-run noise (median repeat minus best).</text></svg>
